<?xml version="1.0" encoding="UTF-8"?>
<svg xmlns="http://www.w3.org/2000/svg" xmlns:xlink="http://www.w3.org/1999/xlink" width="250px" height="354px" viewBox="0 0 250 353" version="1.1">
<g id="surface1">
<path style=" stroke:none;fill-rule:nonzero;fill:rgb(0%,0%,0%);fill-opacity:1;" d="M 76.316406 2.296875 C 76.28125 2.292969 76.246094 2.292969 76.214844 2.300781 C 76.175781 2.304688 76.136719 2.316406 76.097656 2.332031 C 75.996094 2.355469 75.898438 2.398438 75.816406 2.476562 C 75.492188 2.769531 75.320312 3.292969 75.15625 4.65625 C 75.152344 4.667969 75.152344 4.679688 75.152344 4.691406 C 75.105469 5.085938 75.058594 5.539062 75.007812 6.089844 C 74.964844 6.585938 74.945312 8.324219 74.941406 10.464844 C 74.929688 11.691406 74.933594 13.015625 74.953125 14.398438 C 74.972656 17.136719 75.015625 19.808594 75.074219 21.125 C 75.121094 22.21875 75.179688 23.304688 75.242188 24.371094 C 75.261719 24.761719 75.28125 25.121094 75.304688 25.441406 C 75.3125 25.589844 75.328125 25.75 75.335938 25.902344 C 75.722656 31.816406 76.273438 36.863281 76.746094 38.410156 C 76.746094 38.417969 76.75 38.425781 76.75 38.429688 C 76.753906 38.46875 76.761719 38.503906 76.765625 38.527344 C 76.75 38.617188 76.628906 38.605469 76.273438 38.527344 C 73.730469 37.96875 68.058594 37.972656 63.121094 38.542969 C 59.503906 38.957031 54.101562 40.289062 52.261719 41.21875 L 52.101562 41.300781 C 51.933594 41.367188 51.792969 41.417969 51.6875 41.445312 C 51.558594 41.472656 51.464844 41.472656 51.386719 41.457031 L 51.019531 41.214844 C 50.132812 40.625 48.359375 39.664062 46.492188 38.726562 C 46.28125 38.617188 46.074219 38.511719 45.890625 38.417969 C 45.25 38.097656 44.582031 37.78125 43.894531 37.46875 C 43.269531 37.179688 42.664062 36.90625 42.136719 36.683594 C 34.117188 33.300781 24.355469 30.847656 16.242188 30.179688 C 15.332031 30.101562 14.210938 30.066406 13.109375 30.058594 C 12.824219 30.050781 12.5625 30.046875 12.332031 30.046875 C 11.917969 30.046875 11.523438 30.058594 11.148438 30.078125 C 10.894531 30.085938 10.65625 30.097656 10.433594 30.109375 C 9.503906 30.15625 8.804688 30.234375 8.601562 30.335938 C 8.460938 30.40625 8.351562 30.472656 8.257812 30.542969 C 8.042969 30.667969 7.9375 30.816406 7.9375 30.992188 C 7.9375 31.066406 7.964844 31.160156 8.015625 31.269531 C 8.042969 31.367188 8.089844 31.472656 8.148438 31.589844 C 8.289062 31.859375 8.761719 32.40625 9.367188 33.035156 C 9.847656 33.550781 10.414062 34.097656 11.015625 34.632812 C 11.5625 35.128906 12.09375 35.585938 12.519531 35.898438 C 13.886719 36.910156 16.691406 38.820312 16.8125 38.820312 C 16.859375 38.820312 17.09375 38.960938 17.335938 39.128906 C 17.855469 39.5 18.992188 40.15625 20.421875 40.9375 C 20.789062 41.160156 21.628906 41.605469 22.664062 42.136719 C 25.746094 43.75 29.359375 45.535156 31.496094 46.453125 C 32.175781 46.746094 32.898438 47.046875 33.628906 47.347656 C 34.042969 47.527344 34.585938 47.746094 35.234375 48.003906 C 38.253906 49.21875 41.199219 50.324219 42.421875 50.675781 C 42.878906 50.808594 43.085938 50.894531 43.15625 50.996094 C 43.148438 51.078125 43.125 51.207031 43.09375 51.371094 C 42.503906 53.082031 41.804688 57.609375 41.796875 59.863281 C 41.796875 59.988281 41.792969 60.105469 41.789062 60.214844 C 41.78125 60.277344 41.777344 60.320312 41.769531 60.371094 C 41.730469 60.613281 41.683594 60.757812 41.628906 60.808594 C 41.542969 60.785156 41.378906 60.726562 41.167969 60.644531 C 40.902344 60.53125 40.558594 60.375 40.191406 60.207031 C 39.449219 59.863281 38.679688 59.527344 38.480469 59.46875 C 38.285156 59.40625 37.796875 59.207031 37.402344 59.027344 C 36.484375 58.613281 34.875 58.011719 32.503906 57.195312 C 25.976562 54.949219 18.449219 53.195312 11.972656 52.421875 C 11.222656 52.332031 10.046875 52.234375 8.824219 52.152344 C 7.875 52.074219 6.9375 52.015625 6.019531 51.980469 C 5.585938 51.960938 5.246094 51.953125 4.945312 51.945312 C 4.265625 51.925781 3.789062 51.925781 3.703125 51.960938 C 3.601562 52 3.535156 52.078125 3.507812 52.207031 C 3.480469 52.265625 3.472656 52.339844 3.472656 52.425781 C 3.472656 52.425781 3.472656 52.429688 3.472656 52.429688 C 3.472656 52.433594 3.472656 52.433594 3.472656 52.4375 C 3.472656 52.5 3.492188 52.605469 3.523438 52.734375 C 3.589844 53.128906 3.753906 53.699219 4.03125 54.507812 C 5.164062 57.855469 6.957031 62.203125 8.835938 66.296875 C 8.90625 66.46875 9.09375 66.878906 9.34375 67.394531 C 10.917969 70.765625 12.519531 73.882812 13.816406 76.011719 C 14.277344 76.777344 14.519531 77.226562 14.78125 77.484375 C 14.839844 77.558594 14.882812 77.613281 14.90625 77.625 C 14.914062 77.628906 14.941406 77.632812 14.976562 77.640625 C 15.371094 77.875 15.910156 77.804688 17.230469 77.742188 C 17.441406 77.734375 17.757812 77.730469 18.140625 77.726562 C 18.902344 77.738281 19.71875 77.746094 20.609375 77.75 C 21.40625 77.757812 22.171875 77.765625 22.921875 77.777344 C 25.914062 77.832031 29.113281 77.929688 30.199219 78.015625 C 30.515625 78.042969 31.40625 78.109375 32.179688 78.167969 C 32.363281 78.179688 32.535156 78.195312 32.695312 78.210938 C 33.160156 78.269531 33.457031 78.335938 33.550781 78.398438 C 33.546875 78.453125 33.53125 78.550781 33.507812 78.675781 C 33.464844 78.820312 33.417969 78.992188 33.359375 79.175781 C 32.136719 83.140625 29.40625 92.675781 29.40625 92.980469 C 29.40625 93.007812 29.410156 93.035156 29.417969 93.0625 C 29.414062 93.082031 29.40625 93.113281 29.40625 93.121094 C 29.40625 93.160156 29.460938 93.210938 29.574219 93.277344 C 29.855469 93.515625 30.5625 93.800781 32.144531 94.363281 C 34.765625 95.292969 38.078125 96.527344 38.871094 96.863281 C 38.898438 96.878906 38.925781 96.890625 38.949219 96.90625 C 39.125 97.011719 39.253906 97.132812 39.378906 97.355469 C 39.421875 97.441406 39.460938 97.535156 39.492188 97.628906 C 39.582031 97.925781 39.789062 98.507812 39.953125 98.925781 C 39.96875 98.972656 39.984375 99.011719 40 99.054688 C 40.097656 99.382812 40.148438 99.605469 40.160156 99.777344 C 40.152344 99.878906 40.121094 99.980469 40.074219 100.097656 C 39.921875 100.464844 39.808594 100.523438 39.085938 100.613281 C 38.632812 100.671875 38.15625 100.796875 37.691406 100.964844 C 37.390625 101.0625 37.101562 101.1875 36.824219 101.339844 C 36.050781 101.734375 35.402344 102.230469 35.117188 102.703125 C 34.914062 102.878906 34.742188 103.003906 34.652344 103.03125 C 34.539062 102.90625 34.351562 102.664062 34.160156 102.382812 C 33.929688 102.042969 33.378906 101.394531 32.832031 100.804688 C 32.757812 100.726562 32.683594 100.652344 32.613281 100.574219 C 32.570312 100.53125 32.527344 100.484375 32.488281 100.441406 C 31.480469 99.414062 31.261719 99.253906 30.835938 99.25 C 30.835938 99.25 30.832031 99.25 30.828125 99.25 C 30.828125 99.25 30.824219 99.25 30.824219 99.25 C 30.820312 99.25 30.820312 99.25 30.816406 99.25 C 30.8125 99.25 30.804688 99.25 30.800781 99.25 C 30.796875 99.25 30.796875 99.25 30.792969 99.25 C 30.78125 99.25 30.773438 99.25 30.761719 99.25 C 30.179688 99.269531 29.855469 99.617188 29.734375 100.34375 C 29.695312 100.601562 29.578125 100.894531 29.457031 101.046875 C 29.417969 101.078125 29.378906 101.125 29.339844 101.175781 C 29.070312 101.472656 28.914062 102.078125 28.859375 102.90625 C 28.84375 103.097656 28.828125 103.292969 28.828125 103.484375 C 28.828125 103.746094 28.84375 104.027344 28.859375 104.320312 C 28.949219 106.175781 29.359375 108.601562 30.066406 111.117188 C 30.269531 111.832031 30.523438 112.746094 30.632812 113.152344 C 30.957031 114.34375 31.539062 115.941406 32.199219 117.539062 C 32.386719 118.058594 32.746094 118.875 33.175781 119.765625 C 33.695312 120.890625 34.214844 121.902344 34.660156 122.628906 C 35.988281 124.804688 37.066406 125.988281 38.148438 126.464844 C 38.878906 126.789062 39.339844 126.734375 39.804688 126.273438 L 40.105469 125.96875 L 41.058594 126.28125 C 41.082031 126.289062 41.113281 126.296875 41.136719 126.304688 C 41.476562 126.4375 41.835938 126.539062 42.285156 126.609375 C 42.503906 126.660156 42.714844 126.707031 42.878906 126.734375 C 43.980469 126.914062 48.980469 126.910156 51.234375 126.726562 C 52.183594 126.648438 53.753906 126.542969 54.71875 126.492188 L 56.472656 126.398438 L 56.390625 127 C 56.34375 127.335938 56.382812 127.597656 56.488281 127.789062 C 56.609375 128.023438 56.839844 128.144531 57.167969 128.148438 C 57.488281 128.160156 57.894531 128.066406 58.382812 127.859375 L 59.101562 127.550781 L 59.570312 128.0625 C 59.652344 128.183594 59.742188 128.277344 59.839844 128.34375 C 59.996094 128.492188 60.125 128.597656 60.160156 128.597656 C 60.335938 128.597656 60.882812 128.28125 61.203125 127.988281 L 61.367188 127.839844 C 61.433594 127.796875 61.484375 127.773438 61.527344 127.765625 C 61.554688 127.769531 61.582031 127.777344 61.609375 127.789062 L 61.976562 128.152344 C 62.507812 128.683594 62.679688 128.660156 63.769531 127.929688 L 64.484375 127.449219 L 64.578125 127.554688 L 64.96875 128.023438 C 65.679688 128.878906 66.121094 128.828125 67.183594 127.777344 L 67.820312 127.148438 C 67.929688 127.066406 68.019531 127.011719 68.09375 126.976562 L 68.703125 127.148438 C 69.046875 127.246094 69.304688 127.3125 69.523438 127.355469 L 70.023438 127.503906 L 70.371094 127.324219 C 70.523438 127.273438 70.691406 127.195312 70.898438 127.089844 L 71.660156 126.703125 L 72.46875 127.492188 C 72.488281 127.511719 72.507812 127.53125 72.527344 127.550781 C 72.699219 127.722656 72.863281 127.867188 73.023438 127.984375 C 73.898438 128.671875 74.410156 128.585938 74.664062 127.726562 C 74.691406 127.636719 74.714844 127.574219 74.738281 127.5 C 74.800781 127.332031 74.855469 127.207031 74.890625 127.171875 C 74.933594 127.1875 75.363281 127.429688 75.886719 127.734375 C 76.429688 128.050781 76.96875 128.3125 77.082031 128.3125 C 77.359375 128.3125 77.816406 127.886719 77.816406 127.625 C 77.878906 127.550781 77.945312 127.507812 78.003906 127.503906 C 78.023438 127.507812 78.042969 127.511719 78.066406 127.523438 C 78.207031 127.582031 78.664062 127.660156 79.082031 127.699219 C 79.828125 127.769531 79.847656 127.761719 80.015625 127.324219 C 80.074219 127.167969 80.117188 127.066406 80.1875 126.996094 C 80.191406 126.992188 80.199219 126.988281 80.203125 126.984375 C 80.285156 126.941406 80.402344 126.90625 80.566406 126.882812 C 80.589844 126.878906 80.605469 126.878906 80.628906 126.878906 C 80.628906 126.878906 80.632812 126.878906 80.632812 126.878906 C 80.6875 126.875 80.746094 126.875 80.816406 126.875 C 80.816406 126.875 80.816406 126.875 80.820312 126.875 C 80.847656 126.875 80.867188 126.871094 80.898438 126.871094 C 80.945312 126.871094 80.992188 126.867188 81.039062 126.867188 C 81.058594 126.863281 81.082031 126.863281 81.105469 126.863281 C 81.765625 126.816406 82.136719 126.546875 82.136719 126.09375 C 82.140625 125.910156 82.15625 125.835938 83.132812 125.808594 L 84.339844 125.839844 C 85.625 125.875 87.214844 125.835938 88.894531 125.746094 C 91.070312 125.683594 92.628906 125.527344 95.394531 125.15625 L 97.058594 124.929688 L 97.335938 124.894531 L 97.363281 124.917969 L 97.699219 125.285156 C 98.046875 125.671875 98.433594 125.902344 98.855469 125.984375 C 98.863281 125.984375 98.867188 125.984375 98.875 125.988281 C 99.273438 126.058594 99.703125 126 100.167969 125.804688 C 100.675781 125.59375 101.316406 125 101.984375 124.179688 C 102.394531 123.691406 102.792969 123.125 103.183594 122.492188 C 103.667969 121.722656 104.128906 120.871094 104.523438 120.003906 C 106.574219 115.5 107.898438 109.710938 108.097656 105.609375 C 108.15625 104.890625 108.179688 104.347656 108.140625 104.226562 C 108.132812 104.199219 108.125 104.132812 108.113281 104.046875 C 108.058594 102.414062 107.761719 101.214844 107.175781 100.730469 C 107.019531 100.601562 106.789062 100.296875 106.628906 100.015625 C 106.621094 99.875 106.523438 99.722656 106.386719 99.589844 C 106.261719 99.40625 106.136719 99.332031 105.921875 99.296875 C 105.859375 99.277344 105.800781 99.261719 105.738281 99.253906 C 105.730469 99.253906 105.722656 99.253906 105.714844 99.253906 C 105.699219 99.25 105.683594 99.25 105.671875 99.25 C 105.667969 99.25 105.667969 99.25 105.664062 99.25 C 105.660156 99.25 105.65625 99.25 105.652344 99.25 C 105.589844 99.25 105.53125 99.257812 105.46875 99.273438 C 105.21875 99.296875 105.050781 99.421875 104.742188 99.746094 C 104.652344 99.84375 104.558594 99.929688 104.46875 100 C 104.390625 100.054688 104.316406 100.105469 104.25 100.148438 C 104.171875 100.1875 104.113281 100.203125 104.074219 100.191406 C 103.921875 100.128906 103.707031 100.242188 103.457031 100.5 C 103.292969 100.65625 103.109375 100.894531 102.90625 101.222656 C 102.652344 101.605469 102.382812 102.089844 102.101562 102.65625 C 101.71875 103.4375 101.433594 104.011719 101.320312 104.226562 C 101.277344 104.296875 101.238281 104.363281 101.214844 104.390625 C 101.136719 104.355469 100.738281 103.992188 100.273438 103.53125 C 98.640625 101.910156 96.972656 100.773438 95.824219 100.496094 C 95.5625 100.433594 95.355469 100.191406 95.09375 99.648438 C 94.894531 99.230469 94.238281 97.917969 93.636719 96.730469 C 91.597656 92.707031 90.421875 89.058594 90.136719 85.867188 C 90.089844 85.351562 90.015625 84.65625 89.976562 84.320312 C 89.960938 84.1875 89.949219 84.085938 89.953125 83.992188 C 89.972656 83.855469 90.011719 83.738281 90.0625 83.625 C 90.199219 83.398438 90.480469 83.101562 91.027344 82.523438 C 91.648438 81.871094 92.382812 81.042969 92.65625 80.6875 C 92.929688 80.332031 93.191406 80.007812 93.234375 79.96875 C 93.507812 79.726562 94.183594 78.648438 94.847656 77.46875 C 95.1875 76.902344 95.484375 76.347656 95.738281 75.8125 C 96.019531 75.257812 96.246094 74.765625 96.367188 74.429688 C 96.722656 73.445312 96.996094 71.707031 96.964844 70.59375 C 96.910156 68.503906 96.582031 67.132812 95.25 63.421875 C 93.957031 59.820312 93.589844 58.515625 92.785156 54.71875 C 92.1875 51.878906 91.75 50.449219 90.820312 48.246094 L 90.121094 46.59375 C 90.097656 46.382812 90.085938 46.117188 90.074219 45.773438 L 90.070312 45.570312 C 90.066406 45.28125 90.0625 44.964844 90.0625 44.574219 C 90.0625 43.863281 90.046875 43.082031 90.019531 42.269531 C 90.003906 41.511719 89.980469 40.8125 89.949219 40.140625 C 89.738281 34.875 89.117188 30.679688 87.761719 25.132812 C 85.808594 17.125 82.0625 8.726562 78.402344 4.152344 C 77.671875 3.242188 77.097656 2.679688 76.648438 2.449219 C 76.515625 2.359375 76.410156 2.308594 76.316406 2.296875 Z M 43.789062 80.925781 L 44.953125 83.253906 L 42.769531 92.117188 L 38.113281 89.792969 Z M 43.789062 80.925781 "/>
<path style=" stroke:none;fill-rule:nonzero;fill:rgb(100%,84.313725%,24.313725%);fill-opacity:1;" d="M 60.242188 128.585938 C 60.210938 128.59375 60.179688 128.597656 60.160156 128.597656 C 60.179688 128.597656 60.210938 128.59375 60.242188 128.585938 Z M 60.242188 128.585938 "/>
<path style=" stroke:none;fill-rule:nonzero;fill:rgb(100%,84.313725%,24.313725%);fill-opacity:1;" d="M 66.34375 128.472656 C 66.246094 128.527344 66.15625 128.566406 66.070312 128.589844 C 66.15625 128.566406 66.246094 128.527344 66.34375 128.472656 Z M 66.34375 128.472656 "/>
<path style=" stroke:none;fill-rule:nonzero;fill:rgb(100%,84.313725%,24.313725%);fill-opacity:1;" d="M 62.976562 128.414062 C 62.855469 128.46875 62.753906 128.503906 62.664062 128.515625 C 62.753906 128.503906 62.855469 128.46875 62.976562 128.414062 Z M 62.976562 128.414062 "/>
<path style=" stroke:none;fill-rule:nonzero;fill:rgb(100%,84.313725%,24.313725%);fill-opacity:1;" d="M 62.246094 128.390625 C 62.300781 128.433594 62.351562 128.460938 62.40625 128.484375 C 62.351562 128.460938 62.300781 128.433594 62.246094 128.390625 Z M 62.246094 128.390625 "/>
<path style=" stroke:none;fill-rule:nonzero;fill:rgb(100%,84.313725%,24.313725%);fill-opacity:1;" d="M 65.226562 128.300781 C 65.308594 128.378906 65.386719 128.441406 65.464844 128.492188 C 65.386719 128.441406 65.308594 128.378906 65.226562 128.300781 Z M 65.226562 128.300781 "/>
<path style=" stroke:none;fill-rule:nonzero;fill:rgb(100%,84.313725%,24.313725%);fill-opacity:1;" d="M 77.019531 128.300781 C 77.046875 128.308594 77.066406 128.3125 77.082031 128.3125 C 77.097656 128.3125 77.117188 128.308594 77.136719 128.304688 C 77.117188 128.308594 77.097656 128.3125 77.082031 128.3125 C 77.066406 128.3125 77.046875 128.308594 77.019531 128.300781 Z M 77.019531 128.300781 "/>
<path style=" stroke:none;fill-rule:nonzero;fill:rgb(100%,84.313725%,24.313725%);fill-opacity:1;" d="M 77.4375 128.164062 C 77.355469 128.222656 77.269531 128.269531 77.191406 128.292969 C 77.269531 128.269531 77.355469 128.222656 77.4375 128.164062 Z M 77.4375 128.164062 "/>
<path style=" stroke:none;fill-rule:nonzero;fill:rgb(100%,84.313725%,24.313725%);fill-opacity:1;" d="M 57.425781 128.136719 C 57.335938 128.148438 57.25 128.152344 57.167969 128.148438 C 57.128906 128.148438 57.089844 128.144531 57.050781 128.140625 C 57.089844 128.144531 57.128906 128.148438 57.167969 128.148438 C 57.25 128.152344 57.335938 128.148438 57.425781 128.136719 Z M 57.425781 128.136719 "/>
<path style=" stroke:none;fill-rule:nonzero;fill:rgb(100%,84.313725%,24.313725%);fill-opacity:1;" d="M 57.867188 128.046875 C 57.761719 128.078125 57.660156 128.101562 57.566406 128.117188 C 57.660156 128.101562 57.761719 128.078125 57.867188 128.046875 Z M 57.867188 128.046875 "/>
<path style=" stroke:none;fill-rule:nonzero;fill:rgb(100%,84.313725%,24.313725%);fill-opacity:1;" d="M 58.203125 127.933594 C 58.085938 127.976562 57.976562 128.015625 57.867188 128.046875 C 57.976562 128.015625 58.085938 127.976562 58.203125 127.933594 Z M 58.203125 127.933594 "/>
<path style=" stroke:none;fill-rule:nonzero;fill:rgb(100%,84.313725%,24.313725%);fill-opacity:1;" d="M 61.457031 127.789062 C 61.429688 127.800781 61.398438 127.816406 61.367188 127.839844 L 61.203125 127.988281 C 61.042969 128.132812 60.824219 128.285156 60.628906 128.402344 C 60.824219 128.285156 61.042969 128.132812 61.203125 127.988281 L 61.367188 127.839844 C 61.398438 127.816406 61.429688 127.800781 61.457031 127.789062 Z M 61.457031 127.789062 "/>
<path style=" stroke:none;fill-rule:nonzero;fill:rgb(100%,84.313725%,24.313725%);fill-opacity:1;" d="M 61.527344 127.765625 C 61.503906 127.769531 61.480469 127.777344 61.457031 127.789062 C 61.480469 127.777344 61.503906 127.769531 61.527344 127.765625 C 61.554688 127.769531 61.582031 127.777344 61.609375 127.789062 C 61.582031 127.777344 61.554688 127.769531 61.527344 127.765625 Z M 61.527344 127.765625 "/>
<path style=" stroke:none;fill-rule:nonzero;fill:rgb(100%,84.313725%,24.313725%);fill-opacity:1;" d="M 79.71875 127.71875 C 79.664062 127.730469 79.601562 127.734375 79.519531 127.734375 C 79.601562 127.734375 79.664062 127.730469 79.71875 127.71875 Z M 79.71875 127.71875 "/>
<path style=" stroke:none;fill-rule:nonzero;fill:rgb(100%,84.313725%,24.313725%);fill-opacity:1;" d="M 79.808594 127.683594 C 79.78125 127.699219 79.75 127.710938 79.71875 127.71875 C 79.753906 127.710938 79.78125 127.699219 79.808594 127.683594 Z M 79.808594 127.683594 "/>
<path style=" stroke:none;fill-rule:nonzero;fill:rgb(100%,84.313725%,24.313725%);fill-opacity:1;" d="M 79.875 127.621094 C 79.863281 127.632812 79.855469 127.644531 79.84375 127.65625 C 79.855469 127.644531 79.863281 127.632812 79.875 127.621094 Z M 79.875 127.621094 "/>
<path style=" stroke:none;fill-rule:nonzero;fill:rgb(100%,84.313725%,24.313725%);fill-opacity:1;" d="M 77.863281 127.574219 C 77.847656 127.589844 77.832031 127.605469 77.816406 127.625 C 77.816406 127.640625 77.8125 127.660156 77.8125 127.675781 C 77.8125 127.660156 77.816406 127.644531 77.816406 127.625 C 77.832031 127.605469 77.847656 127.589844 77.863281 127.574219 Z M 77.863281 127.574219 "/>
<path style=" stroke:none;fill-rule:nonzero;fill:rgb(100%,84.313725%,24.313725%);fill-opacity:1;" d="M 78.226562 127.570312 C 78.425781 127.617188 78.746094 127.667969 79.050781 127.699219 C 78.746094 127.667969 78.425781 127.617188 78.226562 127.570312 Z M 78.226562 127.570312 "/>
<path style=" stroke:none;fill-rule:nonzero;fill:rgb(100%,84.313725%,24.313725%);fill-opacity:1;" d="M 59.097656 127.550781 L 58.382812 127.859375 C 58.320312 127.886719 58.261719 127.910156 58.203125 127.933594 C 58.261719 127.910156 58.320312 127.886719 58.382812 127.859375 L 59.101562 127.550781 Z M 59.097656 127.550781 "/>
<path style=" stroke:none;fill-rule:nonzero;fill:rgb(100%,84.313725%,24.313725%);fill-opacity:1;" d="M 64.484375 127.449219 L 63.769531 127.929688 C 63.632812 128.019531 63.511719 128.101562 63.398438 128.171875 C 63.511719 128.101562 63.632812 128.019531 63.769531 127.929688 Z M 64.484375 127.449219 "/>
<path style=" stroke:none;fill-rule:nonzero;fill:rgb(100%,84.313725%,24.313725%);fill-opacity:1;" d="M 74.613281 127.878906 C 74.558594 128.023438 74.496094 128.136719 74.421875 128.226562 C 74.496094 128.136719 74.558594 128.019531 74.613281 127.878906 Z M 74.613281 127.878906 "/>
<path style=" stroke:none;fill-rule:nonzero;fill:rgb(100%,84.313725%,24.313725%);fill-opacity:1;" d="M 74.824219 127.285156 C 74.796875 127.34375 74.769531 127.414062 74.738281 127.5 C 74.714844 127.574219 74.691406 127.636719 74.664062 127.726562 C 74.648438 127.78125 74.632812 127.832031 74.613281 127.878906 C 74.632812 127.832031 74.648438 127.78125 74.664062 127.726562 C 74.691406 127.636719 74.714844 127.574219 74.738281 127.5 C 74.769531 127.414062 74.796875 127.34375 74.824219 127.285156 Z M 74.824219 127.285156 "/>
<path style=" stroke:none;fill-rule:nonzero;fill:rgb(100%,84.313725%,24.313725%);fill-opacity:1;" d="M 74.890625 127.171875 C 74.878906 127.179688 74.871094 127.195312 74.859375 127.214844 C 74.871094 127.195312 74.878906 127.179688 74.890625 127.171875 Z M 74.890625 127.171875 "/>
<path style=" stroke:none;fill-rule:nonzero;fill:rgb(100%,84.313725%,24.313725%);fill-opacity:1;" d="M 80.097656 127.125 C 80.070312 127.179688 80.042969 127.246094 80.015625 127.324219 C 79.992188 127.378906 79.976562 127.425781 79.957031 127.46875 C 79.976562 127.425781 79.992188 127.378906 80.015625 127.324219 C 80.042969 127.246094 80.070312 127.179688 80.097656 127.125 Z M 80.097656 127.125 "/>
<path style=" stroke:none;fill-rule:nonzero;fill:rgb(100%,84.313725%,24.313725%);fill-opacity:1;" d="M 80.1875 126.996094 C 80.152344 127.03125 80.125 127.074219 80.097656 127.125 C 80.125 127.074219 80.152344 127.03125 80.1875 126.996094 Z M 80.1875 126.996094 "/>
<path style=" stroke:none;fill-rule:nonzero;fill:rgb(100%,84.313725%,24.313725%);fill-opacity:1;" d="M 80.566406 126.882812 C 80.445312 126.902344 80.347656 126.925781 80.273438 126.953125 C 80.347656 126.925781 80.445312 126.902344 80.566406 126.882812 Z M 80.566406 126.882812 "/>
<path style=" stroke:none;fill-rule:nonzero;fill:rgb(100%,84.313725%,24.313725%);fill-opacity:1;" d="M 80.8125 126.875 C 80.746094 126.875 80.6875 126.875 80.632812 126.875 C 80.632812 126.875 80.628906 126.875 80.628906 126.875 C 80.605469 126.878906 80.589844 126.878906 80.566406 126.882812 C 80.589844 126.878906 80.605469 126.878906 80.628906 126.878906 C 80.632812 126.878906 80.632812 126.878906 80.632812 126.878906 C 80.6875 126.875 80.746094 126.875 80.8125 126.875 Z M 80.8125 126.875 "/>
<path style=" stroke:none;fill-rule:nonzero;fill:rgb(100%,84.313725%,24.313725%);fill-opacity:1;" d="M 81.335938 126.835938 C 81.265625 126.847656 81.1875 126.855469 81.105469 126.863281 C 81.082031 126.863281 81.058594 126.867188 81.039062 126.867188 C 81.058594 126.863281 81.082031 126.863281 81.105469 126.863281 C 81.1875 126.859375 81.265625 126.847656 81.335938 126.835938 Z M 81.335938 126.835938 "/>
<path style=" stroke:none;fill-rule:nonzero;fill:rgb(100%,84.313725%,24.313725%);fill-opacity:1;" d="M 66.992188 127.960938 C 66.867188 128.078125 66.753906 128.179688 66.644531 128.261719 C 66.753906 128.179688 66.867188 128.078125 66.992188 127.960938 Z M 66.992188 127.960938 "/>
<path style=" stroke:none;fill-rule:nonzero;fill:rgb(100%,84.313725%,24.313725%);fill-opacity:1;" d="M 67.96875 127.046875 C 67.925781 127.074219 67.875 127.109375 67.820312 127.148438 L 67.183594 127.777344 C 67.117188 127.84375 67.054688 127.90625 66.992188 127.960938 C 67.054688 127.90625 67.117188 127.84375 67.183594 127.777344 L 67.820312 127.148438 C 67.875 127.109375 67.925781 127.074219 67.96875 127.046875 Z M 67.96875 127.046875 "/>
<path style=" stroke:none;fill-rule:nonzero;fill:rgb(100%,84.313725%,24.313725%);fill-opacity:1;" d="M 71.660156 126.703125 L 70.898438 127.089844 C 70.691406 127.195312 70.523438 127.273438 70.371094 127.324219 L 70.023438 127.503906 L 69.523438 127.355469 C 69.304688 127.3125 69.046875 127.246094 68.703125 127.148438 L 68.09375 126.976562 C 68.058594 126.996094 68.015625 127.015625 67.96875 127.046875 C 68.015625 127.015625 68.058594 126.996094 68.09375 126.976562 L 68.703125 127.148438 C 69.046875 127.25 69.304688 127.316406 69.523438 127.355469 L 70.023438 127.503906 L 70.371094 127.324219 C 70.523438 127.273438 70.691406 127.195312 70.898438 127.089844 Z M 71.660156 126.703125 "/>
<path style=" stroke:none;fill-rule:nonzero;fill:rgb(100%,84.313725%,24.313725%);fill-opacity:1;" d="M 81.929688 126.578125 C 81.871094 126.632812 81.800781 126.679688 81.722656 126.71875 C 81.800781 126.679688 81.871094 126.632812 81.929688 126.578125 Z M 81.929688 126.578125 "/>
<path style=" stroke:none;fill-rule:nonzero;fill:rgb(100%,84.313725%,24.313725%);fill-opacity:1;" d="M 38.648438 126.636719 C 38.726562 126.652344 38.800781 126.664062 38.871094 126.667969 C 38.800781 126.664062 38.726562 126.652344 38.648438 126.636719 Z M 38.648438 126.636719 "/>
<path style=" stroke:none;fill-rule:nonzero;fill:rgb(100%,84.313725%,24.313725%);fill-opacity:1;" d="M 38.4375 126.578125 C 38.511719 126.601562 38.582031 126.621094 38.648438 126.636719 C 38.582031 126.621094 38.511719 126.601562 38.4375 126.578125 Z M 38.4375 126.578125 "/>
<path style=" stroke:none;fill-rule:nonzero;fill:rgb(100%,84.313725%,24.313725%);fill-opacity:1;" d="M 43.128906 126.765625 C 43.324219 126.785156 43.574219 126.800781 43.863281 126.816406 C 43.574219 126.800781 43.324219 126.785156 43.128906 126.765625 Z M 43.128906 126.765625 "/>
<path style=" stroke:none;fill-rule:nonzero;fill:rgb(100%,84.313725%,24.313725%);fill-opacity:1;" d="M 42.023438 126.5625 C 42.109375 126.578125 42.195312 126.597656 42.285156 126.609375 C 42.503906 126.660156 42.714844 126.707031 42.878906 126.734375 C 42.945312 126.746094 43.03125 126.753906 43.128906 126.765625 C 43.03125 126.753906 42.945312 126.746094 42.875 126.734375 C 42.714844 126.707031 42.503906 126.660156 42.285156 126.609375 C 42.195312 126.597656 42.109375 126.578125 42.023438 126.5625 Z M 42.023438 126.5625 "/>
<path style=" stroke:none;fill-rule:nonzero;fill:rgb(100%,84.313725%,24.313725%);fill-opacity:1;" d="M 52.96875 126.601562 C 52.339844 126.644531 51.707031 126.6875 51.234375 126.726562 C 50.953125 126.75 50.625 126.769531 50.273438 126.789062 C 50.628906 126.769531 50.953125 126.75 51.234375 126.726562 C 51.710938 126.6875 52.339844 126.644531 52.96875 126.601562 Z M 52.96875 126.601562 "/>
<path style=" stroke:none;fill-rule:nonzero;fill:rgb(100%,84.313725%,24.313725%);fill-opacity:1;" d="M 56.472656 126.398438 L 54.714844 126.492188 C 54.234375 126.519531 53.601562 126.558594 52.96875 126.601562 C 53.601562 126.558594 54.234375 126.519531 54.714844 126.492188 Z M 56.472656 126.398438 "/>
<path style=" stroke:none;fill-rule:nonzero;fill:rgb(100%,84.313725%,24.313725%);fill-opacity:1;" d="M 37.742188 126.253906 C 37.875 126.335938 38.011719 126.40625 38.144531 126.464844 C 38.011719 126.40625 37.875 126.335938 37.742188 126.253906 Z M 37.742188 126.253906 "/>
<path style=" stroke:none;fill-rule:nonzero;fill:rgb(100%,84.313725%,24.313725%);fill-opacity:1;" d="M 82.140625 126.03125 C 82.140625 126.050781 82.136719 126.070312 82.136719 126.09375 C 82.136719 126.125 82.136719 126.152344 82.132812 126.175781 C 82.136719 126.152344 82.136719 126.125 82.136719 126.09375 C 82.136719 126.070312 82.136719 126.050781 82.140625 126.03125 Z M 82.140625 126.03125 "/>
<path style=" stroke:none;fill-rule:nonzero;fill:rgb(100%,84.313725%,24.313725%);fill-opacity:1;" d="M 39.269531 126.621094 C 39.207031 126.644531 39.140625 126.65625 39.074219 126.664062 C 39.140625 126.65625 39.207031 126.644531 39.269531 126.621094 Z M 39.269531 126.621094 "/>
<path style=" stroke:none;fill-rule:nonzero;fill:rgb(100%,84.313725%,24.313725%);fill-opacity:1;" d="M 39.714844 126.355469 C 39.570312 126.484375 39.425781 126.574219 39.269531 126.621094 C 39.425781 126.574219 39.570312 126.484375 39.714844 126.355469 Z M 39.714844 126.355469 "/>
<path style=" stroke:none;fill-rule:nonzero;fill:rgb(100%,84.313725%,24.313725%);fill-opacity:1;" d="M 40.105469 125.96875 L 39.804688 126.273438 C 39.773438 126.300781 39.746094 126.328125 39.714844 126.355469 C 39.746094 126.328125 39.773438 126.300781 39.804688 126.273438 L 40.105469 125.96875 L 41.058594 126.28125 C 41.082031 126.289062 41.113281 126.296875 41.136719 126.304688 C 41.136719 126.304688 41.136719 126.300781 41.132812 126.300781 C 41.109375 126.296875 41.082031 126.289062 41.058594 126.28125 Z M 40.105469 125.96875 "/>
<path style=" stroke:none;fill-rule:nonzero;fill:rgb(100%,84.313725%,24.313725%);fill-opacity:1;" d="M 98.875 125.988281 C 99.074219 126.023438 99.28125 126.027344 99.496094 125.996094 C 99.28125 126.027344 99.074219 126.023438 98.875 125.988281 Z M 98.875 125.988281 "/>
<path style=" stroke:none;fill-rule:nonzero;fill:rgb(100%,84.313725%,24.313725%);fill-opacity:1;" d="M 98.699219 125.945312 C 98.75 125.960938 98.804688 125.972656 98.855469 125.984375 C 98.863281 125.984375 98.867188 125.984375 98.875 125.988281 C 98.867188 125.984375 98.863281 125.984375 98.855469 125.984375 C 98.804688 125.972656 98.75 125.960938 98.699219 125.945312 Z M 98.699219 125.945312 "/>
<path style=" stroke:none;fill-rule:nonzero;fill:rgb(100%,84.313725%,24.313725%);fill-opacity:1;" d="M 82.195312 125.929688 C 82.1875 125.9375 82.179688 125.945312 82.171875 125.953125 C 82.179688 125.945312 82.1875 125.9375 82.195312 125.929688 Z M 82.195312 125.929688 "/>
<path style=" stroke:none;fill-rule:nonzero;fill:rgb(100%,84.313725%,24.313725%);fill-opacity:1;" d="M 82.5625 125.839844 C 82.355469 125.859375 82.25 125.886719 82.195312 125.929688 C 82.25 125.890625 82.355469 125.859375 82.5625 125.839844 Z M 82.5625 125.839844 "/>
<path style=" stroke:none;fill-rule:nonzero;fill:rgb(100%,84.313725%,24.313725%);fill-opacity:1;" d="M 83.132812 125.808594 C 83.011719 125.8125 82.902344 125.816406 82.808594 125.820312 C 82.902344 125.816406 83.011719 125.8125 83.132812 125.808594 L 84.339844 125.839844 C 84.984375 125.855469 85.703125 125.855469 86.46875 125.839844 C 85.703125 125.855469 84.984375 125.855469 84.339844 125.839844 Z M 83.132812 125.808594 "/>
<path style=" stroke:none;fill-rule:nonzero;fill:rgb(100%,84.313725%,24.313725%);fill-opacity:1;" d="M 100.167969 125.804688 C 100.050781 125.855469 99.9375 125.894531 99.824219 125.925781 C 99.9375 125.894531 100.050781 125.855469 100.167969 125.804688 Z M 100.167969 125.804688 "/>
<path style=" stroke:none;fill-rule:nonzero;fill:rgb(100%,84.313725%,24.313725%);fill-opacity:1;" d="M 89.6875 125.714844 C 89.429688 125.726562 89.167969 125.738281 88.894531 125.742188 C 88.476562 125.765625 88.0625 125.785156 87.65625 125.800781 C 88.0625 125.785156 88.476562 125.765625 88.894531 125.746094 C 89.167969 125.738281 89.429688 125.726562 89.6875 125.714844 Z M 89.6875 125.714844 "/>
<path style=" stroke:none;fill-rule:nonzero;fill:rgb(100%,84.313725%,24.313725%);fill-opacity:1;" d="M 97.96875 125.546875 C 98.105469 125.660156 98.25 125.753906 98.394531 125.828125 C 98.25 125.753906 98.105469 125.660156 97.96875 125.546875 Z M 97.96875 125.546875 "/>
<path style=" stroke:none;fill-rule:nonzero;fill:rgb(100%,84.313725%,24.313725%);fill-opacity:1;" d="M 36.710938 125.410156 C 36.78125 125.480469 36.847656 125.550781 36.917969 125.617188 C 36.851562 125.550781 36.78125 125.480469 36.710938 125.410156 Z M 36.710938 125.410156 "/>
<path style=" stroke:none;fill-rule:nonzero;fill:rgb(100%,84.313725%,24.313725%);fill-opacity:1;" d="M 93.519531 125.394531 C 92.378906 125.53125 91.429688 125.621094 90.441406 125.679688 C 91.429688 125.621094 92.378906 125.53125 93.519531 125.394531 Z M 93.519531 125.394531 "/>
<path style=" stroke:none;fill-rule:nonzero;fill:rgb(100%,84.313725%,24.313725%);fill-opacity:1;" d="M 101.015625 125.222656 C 100.863281 125.359375 100.714844 125.480469 100.570312 125.578125 C 100.714844 125.480469 100.863281 125.359375 101.015625 125.222656 Z M 101.015625 125.222656 "/>
<path style=" stroke:none;fill-rule:nonzero;fill:rgb(100%,84.313725%,24.313725%);fill-opacity:1;" d="M 97.335938 124.894531 L 97.058594 124.929688 L 95.394531 125.15625 C 95.046875 125.199219 94.722656 125.246094 94.410156 125.285156 C 94.722656 125.246094 95.046875 125.203125 95.394531 125.15625 L 97.058594 124.929688 Z M 97.335938 124.894531 "/>
<path style=" stroke:none;fill-rule:nonzero;fill:rgb(100%,84.313725%,24.313725%);fill-opacity:1;" d="M 102.289062 123.800781 C 102.1875 123.929688 102.085938 124.058594 101.984375 124.179688 C 101.902344 124.28125 101.816406 124.382812 101.734375 124.476562 C 101.816406 124.382812 101.902344 124.28125 101.984375 124.179688 C 102.085938 124.058594 102.1875 123.929688 102.289062 123.800781 Z M 102.289062 123.800781 "/>
<path style=" stroke:none;fill-rule:nonzero;fill:rgb(100%,84.313725%,24.313725%);fill-opacity:1;" d="M 107.742188 108.957031 C 107.652344 109.550781 107.542969 110.160156 107.417969 110.777344 C 107.542969 110.160156 107.652344 109.550781 107.742188 108.957031 Z M 107.742188 108.957031 "/>
<path style=" stroke:none;fill-rule:nonzero;fill:rgb(100%,84.313725%,24.313725%);fill-opacity:1;" d="M 108.113281 104.046875 C 108.125 104.132812 108.132812 104.199219 108.140625 104.226562 C 108.160156 104.285156 108.164062 104.453125 108.15625 104.695312 C 108.164062 104.453125 108.160156 104.285156 108.140625 104.226562 C 108.132812 104.199219 108.125 104.132812 108.113281 104.046875 Z M 108.113281 104.046875 "/>
<path style=" stroke:none;fill-rule:nonzero;fill:rgb(100%,84.313725%,24.313725%);fill-opacity:1;" d="M 34.554688 102.917969 C 34.589844 102.960938 34.625 103 34.652344 103.03125 C 34.625 103 34.589844 102.960938 34.554688 102.917969 Z M 34.554688 102.917969 "/>
<path style=" stroke:none;fill-rule:nonzero;fill:rgb(100%,84.313725%,24.313725%);fill-opacity:1;" d="M 107.953125 102.441406 C 107.980469 102.582031 108 102.726562 108.019531 102.875 C 108 102.726562 107.980469 102.582031 107.953125 102.441406 Z M 107.953125 102.441406 "/>
<path style=" stroke:none;fill-rule:nonzero;fill:rgb(100%,84.313725%,24.313725%);fill-opacity:1;" d="M 34.03125 102.207031 C 34.074219 102.265625 34.128906 102.332031 34.160156 102.382812 C 34.257812 102.523438 34.351562 102.65625 34.4375 102.765625 C 34.351562 102.65625 34.257812 102.523438 34.160156 102.382812 C 34.128906 102.332031 34.074219 102.265625 34.03125 102.207031 Z M 34.03125 102.207031 "/>
<path style=" stroke:none;fill-rule:nonzero;fill:rgb(100%,84.313725%,24.313725%);fill-opacity:1;" d="M 107.5625 101.222656 C 107.617188 101.324219 107.667969 101.4375 107.714844 101.5625 C 107.667969 101.4375 107.617188 101.324219 107.5625 101.222656 Z M 107.5625 101.222656 "/>
<path style=" stroke:none;fill-rule:nonzero;fill:rgb(100%,84.313725%,24.313725%);fill-opacity:1;" d="M 107.28125 100.832031 C 107.351562 100.902344 107.414062 100.984375 107.472656 101.078125 C 107.414062 100.984375 107.351562 100.902344 107.28125 100.832031 Z M 107.28125 100.832031 "/>
<path style=" stroke:none;fill-rule:nonzero;fill:rgb(100%,84.313725%,24.313725%);fill-opacity:1;" d="M 95.410156 100.191406 C 95.441406 100.230469 95.472656 100.269531 95.503906 100.300781 C 95.472656 100.269531 95.441406 100.230469 95.410156 100.191406 Z M 95.410156 100.191406 "/>
<path style=" stroke:none;fill-rule:nonzero;fill:rgb(100%,84.313725%,24.313725%);fill-opacity:1;" d="M 32.144531 100.097656 C 32.25 100.199219 32.359375 100.316406 32.488281 100.441406 C 32.527344 100.484375 32.570312 100.53125 32.613281 100.574219 C 32.683594 100.652344 32.757812 100.726562 32.828125 100.804688 C 33.105469 101.101562 33.378906 101.410156 33.613281 101.6875 C 33.378906 101.410156 33.105469 101.101562 32.832031 100.804688 C 32.757812 100.726562 32.683594 100.652344 32.613281 100.574219 C 32.570312 100.53125 32.527344 100.484375 32.488281 100.441406 C 32.363281 100.316406 32.25 100.199219 32.144531 100.097656 Z M 32.144531 100.097656 "/>
<path style=" stroke:none;fill-rule:nonzero;fill:rgb(100%,84.313725%,24.313725%);fill-opacity:1;" d="M 106.609375 99.917969 C 106.621094 99.949219 106.625 99.984375 106.628906 100.015625 C 106.625 99.984375 106.621094 99.953125 106.609375 99.917969 Z M 106.609375 99.917969 "/>
<path style=" stroke:none;fill-rule:nonzero;fill:rgb(100%,84.313725%,24.313725%);fill-opacity:1;" d="M 39.074219 96.988281 C 39.113281 97.019531 39.148438 97.050781 39.183594 97.085938 C 39.148438 97.050781 39.113281 97.019531 39.074219 96.988281 Z M 39.074219 96.988281 "/>
<path style=" stroke:none;fill-rule:nonzero;fill:rgb(100%,84.313725%,24.313725%);fill-opacity:1;" d="M 34.191406 95.097656 C 35.574219 95.601562 36.929688 96.105469 37.855469 96.460938 C 36.929688 96.105469 35.574219 95.601562 34.191406 95.097656 Z M 34.191406 95.097656 "/>
<path style=" stroke:none;fill-rule:nonzero;fill:rgb(100%,84.313725%,24.313725%);fill-opacity:1;" d="M 30.371094 93.699219 C 30.578125 93.785156 30.820312 93.878906 31.113281 93.988281 C 30.820312 93.878906 30.578125 93.785156 30.371094 93.699219 Z M 30.371094 93.699219 "/>
<path style=" stroke:none;fill-rule:nonzero;fill:rgb(100%,84.313725%,24.313725%);fill-opacity:1;" d="M 29.871094 93.46875 C 30.003906 93.539062 30.167969 93.613281 30.371094 93.699219 C 30.167969 93.613281 30.003906 93.539062 29.871094 93.46875 Z M 29.871094 93.46875 "/>
<path style=" stroke:none;fill-rule:nonzero;fill:rgb(100%,84.313725%,24.313725%);fill-opacity:1;" d="M 92.0625 93.277344 C 92.226562 93.683594 92.398438 94.09375 92.582031 94.507812 C 92.398438 94.09375 92.226562 93.683594 92.0625 93.277344 Z M 92.0625 93.277344 "/>
<path style=" stroke:none;fill-rule:nonzero;fill:rgb(100%,84.313725%,24.313725%);fill-opacity:1;" d="M 29.449219 93.1875 C 29.460938 93.203125 29.480469 93.214844 29.5 93.230469 C 29.480469 93.214844 29.460938 93.203125 29.449219 93.1875 Z M 29.449219 93.1875 "/>
<path style=" stroke:none;fill-rule:nonzero;fill:rgb(100%,84.313725%,24.313725%);fill-opacity:1;" d="M 90.121094 83.539062 C 90.097656 83.570312 90.078125 83.597656 90.0625 83.625 C 90.035156 83.683594 90.015625 83.738281 89.996094 83.800781 C 90.015625 83.738281 90.035156 83.683594 90.0625 83.625 C 90.078125 83.597656 90.097656 83.570312 90.121094 83.539062 Z M 90.121094 83.539062 "/>
<path style=" stroke:none;fill-rule:nonzero;fill:rgb(100%,84.313725%,24.313725%);fill-opacity:1;" d="M 91.507812 82.011719 C 91.347656 82.183594 91.183594 82.359375 91.027344 82.523438 C 90.890625 82.667969 90.769531 82.792969 90.664062 82.90625 C 90.769531 82.792969 90.890625 82.667969 91.027344 82.523438 C 91.183594 82.359375 91.347656 82.183594 91.507812 82.011719 Z M 91.507812 82.011719 "/>
<path style=" stroke:none;fill-rule:nonzero;fill:rgb(100%,84.313725%,24.313725%);fill-opacity:1;" d="M 93.03125 80.210938 C 92.925781 80.339844 92.792969 80.511719 92.65625 80.6875 C 92.585938 80.777344 92.488281 80.894531 92.371094 81.03125 C 92.488281 80.894531 92.585938 80.777344 92.65625 80.6875 C 92.792969 80.511719 92.925781 80.339844 93.03125 80.210938 Z M 93.03125 80.210938 "/>
<path style=" stroke:none;fill-rule:nonzero;fill:rgb(100%,84.313725%,24.313725%);fill-opacity:1;" d="M 93.355469 79.839844 C 93.308594 79.894531 93.269531 79.9375 93.234375 79.96875 C 93.210938 79.988281 93.136719 80.078125 93.03125 80.210938 C 93.136719 80.078125 93.210938 79.988281 93.234375 79.96875 C 93.269531 79.9375 93.308594 79.894531 93.355469 79.839844 Z M 93.355469 79.839844 "/>
<path style=" stroke:none;fill-rule:nonzero;fill:rgb(100%,84.313725%,24.313725%);fill-opacity:1;" d="M 93.691406 79.382812 C 93.558594 79.574219 93.445312 79.730469 93.355469 79.839844 C 93.445312 79.730469 93.558594 79.574219 93.691406 79.382812 Z M 93.691406 79.382812 "/>
<path style=" stroke:none;fill-rule:nonzero;fill:rgb(100%,84.313725%,24.313725%);fill-opacity:1;" d="M 33.011719 78.257812 C 33.199219 78.289062 33.347656 78.320312 33.441406 78.351562 C 33.347656 78.320312 33.199219 78.289062 33.011719 78.257812 Z M 33.011719 78.257812 "/>
<path style=" stroke:none;fill-rule:nonzero;fill:rgb(100%,84.313725%,24.313725%);fill-opacity:1;" d="M 29.023438 77.949219 C 29.523438 77.972656 29.925781 77.996094 30.199219 78.015625 C 29.925781 77.996094 29.523438 77.972656 29.023438 77.949219 Z M 29.023438 77.949219 "/>
<path style=" stroke:none;fill-rule:nonzero;fill:rgb(100%,84.313725%,24.313725%);fill-opacity:1;" d="M 25.167969 77.824219 C 26.644531 77.863281 28.027344 77.90625 29.023438 77.949219 C 28.027344 77.90625 26.644531 77.863281 25.167969 77.824219 Z M 25.167969 77.824219 "/>
<path style=" stroke:none;fill-rule:nonzero;fill:rgb(100%,84.313725%,24.313725%);fill-opacity:1;" d="M 17.621094 77.734375 C 17.46875 77.734375 17.335938 77.738281 17.230469 77.742188 C 16.902344 77.757812 16.621094 77.773438 16.378906 77.785156 C 16.621094 77.773438 16.902344 77.757812 17.230469 77.742188 C 17.335938 77.738281 17.46875 77.734375 17.621094 77.734375 Z M 17.621094 77.734375 "/>
<path style=" stroke:none;fill-rule:nonzero;fill:rgb(100%,84.313725%,24.313725%);fill-opacity:1;" d="M 18.140625 77.726562 C 17.949219 77.726562 17.773438 77.730469 17.621094 77.734375 C 17.773438 77.730469 17.949219 77.726562 18.140625 77.726562 C 18.902344 77.738281 19.71875 77.746094 20.609375 77.75 C 21.40625 77.757812 22.171875 77.765625 22.921875 77.777344 C 22.171875 77.765625 21.40625 77.757812 20.609375 77.75 C 19.71875 77.746094 18.902344 77.738281 18.140625 77.726562 Z M 18.140625 77.726562 "/>
<path style=" stroke:none;fill-rule:nonzero;fill:rgb(100%,84.313725%,24.313725%);fill-opacity:1;" d="M 14.855469 77.578125 C 14.878906 77.601562 14.894531 77.621094 14.90625 77.625 C 14.914062 77.632812 14.941406 77.636719 14.976562 77.640625 C 15.003906 77.652344 15.027344 77.667969 15.054688 77.679688 C 15.027344 77.667969 15.003906 77.652344 14.976562 77.636719 C 14.941406 77.632812 14.914062 77.628906 14.90625 77.625 C 14.894531 77.621094 14.878906 77.601562 14.855469 77.578125 Z M 14.855469 77.578125 "/>
<path style=" stroke:none;fill-rule:nonzero;fill:rgb(100%,84.313725%,24.313725%);fill-opacity:1;" d="M 14.585938 77.25 C 14.652344 77.34375 14.714844 77.417969 14.78125 77.480469 C 14.714844 77.417969 14.652344 77.34375 14.585938 77.25 Z M 14.585938 77.25 "/>
<path style=" stroke:none;fill-rule:nonzero;fill:rgb(100%,84.313725%,24.313725%);fill-opacity:1;" d="M 95.09375 77.046875 C 95.015625 77.1875 94.933594 77.328125 94.847656 77.46875 C 94.683594 77.765625 94.515625 78.054688 94.355469 78.324219 C 94.515625 78.054688 94.683594 77.765625 94.847656 77.46875 C 94.933594 77.328125 95.015625 77.1875 95.09375 77.046875 Z M 95.09375 77.046875 "/>
<path style=" stroke:none;fill-rule:nonzero;fill:rgb(100%,84.313725%,24.313725%);fill-opacity:1;" d="M 95.539062 76.21875 C 95.402344 76.492188 95.253906 76.765625 95.09375 77.046875 C 95.253906 76.765625 95.402344 76.492188 95.539062 76.21875 Z M 95.539062 76.21875 "/>
<path style=" stroke:none;fill-rule:nonzero;fill:rgb(100%,84.313725%,24.313725%);fill-opacity:1;" d="M 95.9375 75.410156 C 95.875 75.539062 95.808594 75.675781 95.738281 75.8125 C 95.671875 75.949219 95.609375 76.082031 95.539062 76.21875 C 95.609375 76.082031 95.675781 75.949219 95.738281 75.8125 C 95.808594 75.675781 95.875 75.539062 95.9375 75.410156 Z M 95.9375 75.410156 "/>
<path style=" stroke:none;fill-rule:nonzero;fill:rgb(100%,84.313725%,24.313725%);fill-opacity:1;" d="M 96.257812 74.710938 C 96.171875 74.914062 96.0625 75.152344 95.9375 75.410156 C 96.0625 75.152344 96.171875 74.914062 96.257812 74.710938 Z M 96.257812 74.710938 "/>
<path style=" stroke:none;fill-rule:nonzero;fill:rgb(100%,84.313725%,24.313725%);fill-opacity:1;" d="M 96.496094 74.027344 C 96.457031 74.171875 96.414062 74.308594 96.367188 74.429688 C 96.335938 74.515625 96.300781 74.605469 96.257812 74.710938 C 96.300781 74.605469 96.339844 74.515625 96.367188 74.429688 C 96.414062 74.308594 96.457031 74.171875 96.496094 74.027344 Z M 96.496094 74.027344 "/>
<path style=" stroke:none;fill-rule:nonzero;fill:rgb(100%,84.313725%,24.313725%);fill-opacity:1;" d="M 96.953125 70.222656 C 96.957031 70.34375 96.960938 70.46875 96.964844 70.59375 C 96.96875 70.734375 96.96875 70.882812 96.960938 71.039062 C 96.96875 70.882812 96.96875 70.734375 96.964844 70.59375 C 96.960938 70.46875 96.957031 70.34375 96.953125 70.222656 Z M 96.953125 70.222656 "/>
<path style=" stroke:none;fill-rule:nonzero;fill:rgb(100%,84.313725%,24.313725%);fill-opacity:1;" d="M 96.867188 69.148438 C 96.894531 69.378906 96.914062 69.605469 96.929688 69.839844 C 96.914062 69.605469 96.894531 69.378906 96.867188 69.148438 Z M 96.867188 69.148438 "/>
<path style=" stroke:none;fill-rule:nonzero;fill:rgb(100%,84.313725%,24.313725%);fill-opacity:1;" d="M 96.390625 66.863281 C 96.464844 67.125 96.53125 67.378906 96.585938 67.617188 C 96.53125 67.378906 96.464844 67.125 96.390625 66.863281 Z M 96.390625 66.863281 "/>
<path style=" stroke:none;fill-rule:nonzero;fill:rgb(0%,0%,0%);fill-opacity:1;" d="M 41.738281 60.535156 C 41.71875 60.632812 41.695312 60.703125 41.667969 60.753906 C 41.695312 60.703125 41.71875 60.632812 41.738281 60.535156 Z M 41.738281 60.535156 "/>
<path style=" stroke:none;fill-rule:nonzero;fill:rgb(100%,84.313725%,24.313725%);fill-opacity:1;" d="M 5.554688 58.628906 C 5.941406 59.609375 6.355469 60.621094 6.789062 61.648438 C 6.355469 60.621094 5.941406 59.609375 5.554688 58.628906 Z M 5.554688 58.628906 "/>
<path style=" stroke:none;fill-rule:nonzero;fill:rgb(0%,0%,0%);fill-opacity:1;" d="M 92.566406 53.714844 C 92.636719 54.03125 92.710938 54.363281 92.785156 54.71875 C 92.886719 55.195312 92.980469 55.628906 93.070312 56.035156 C 92.980469 55.628906 92.886719 55.195312 92.785156 54.71875 C 92.710938 54.363281 92.636719 54.03125 92.566406 53.714844 Z M 92.566406 53.714844 "/>
<path style=" stroke:none;fill-rule:nonzero;fill:rgb(100%,84.313725%,24.313725%);fill-opacity:1;" d="M 35.867188 48.253906 C 36.777344 48.617188 37.683594 48.972656 38.515625 49.289062 C 37.683594 48.972656 36.777344 48.617188 35.867188 48.253906 Z M 35.867188 48.253906 "/>
<path style=" stroke:none;fill-rule:nonzero;fill:rgb(0%,0%,0%);fill-opacity:1;" d="M 90.09375 46.234375 C 90.101562 46.371094 90.109375 46.488281 90.121094 46.59375 L 90.816406 48.246094 L 90.121094 46.59375 C 90.109375 46.488281 90.101562 46.371094 90.09375 46.234375 Z M 90.09375 46.234375 "/>
<path style=" stroke:none;fill-rule:nonzero;fill:rgb(100%,84.313725%,24.313725%);fill-opacity:1;" d="M 90.019531 42.269531 C 90.046875 43.082031 90.0625 43.863281 90.0625 44.574219 C 90.0625 43.863281 90.046875 43.082031 90.019531 42.269531 Z M 90.019531 42.269531 "/>
<path style=" stroke:none;fill-rule:nonzero;fill:rgb(100%,84.313725%,24.313725%);fill-opacity:1;" d="M 76.65625 38.078125 C 76.6875 38.203125 76.714844 38.3125 76.746094 38.410156 C 76.746094 38.417969 76.75 38.425781 76.75 38.429688 C 76.75 38.425781 76.746094 38.417969 76.746094 38.410156 C 76.714844 38.3125 76.6875 38.203125 76.65625 38.078125 Z M 76.65625 38.078125 "/>
<path style=" stroke:none;fill-rule:nonzero;fill:rgb(100%,84.313725%,24.313725%);fill-opacity:1;" d="M 12.761719 36.074219 C 13.058594 36.292969 13.390625 36.527344 13.75 36.78125 C 13.390625 36.527344 13.058594 36.292969 12.761719 36.074219 Z M 12.761719 36.074219 "/>
<path style=" stroke:none;fill-rule:nonzero;fill:rgb(100%,84.313725%,24.313725%);fill-opacity:1;" d="M 87.761719 25.132812 C 87.914062 25.746094 88.050781 26.339844 88.183594 26.925781 C 88.050781 26.339844 87.910156 25.746094 87.761719 25.132812 Z M 87.761719 25.132812 "/>
<path style=" stroke:none;fill-rule:nonzero;fill:rgb(100%,84.313725%,24.313725%);fill-opacity:1;" d="M 76.101562 34.589844 C 76.289062 36.128906 76.476562 37.339844 76.65625 38.078125 C 76.476562 37.339844 76.289062 36.128906 76.101562 34.589844 Z M 76.101562 34.589844 "/>
<path style=" stroke:none;fill-rule:nonzero;fill:rgb(100%,84.313725%,24.313725%);fill-opacity:1;" d="M 75.652344 30.132812 C 75.796875 31.792969 75.945312 33.304688 76.101562 34.589844 C 75.945312 33.304688 75.796875 31.792969 75.652344 30.132812 Z M 75.652344 30.132812 "/>
<path style=" stroke:none;fill-rule:nonzero;fill:rgb(100%,84.313725%,24.313725%);fill-opacity:1;" d="M 75.152344 22.757812 C 75.179688 23.300781 75.210938 23.839844 75.242188 24.371094 C 75.261719 24.761719 75.28125 25.121094 75.304688 25.441406 C 75.3125 25.589844 75.328125 25.75 75.335938 25.902344 C 75.433594 27.382812 75.539062 28.804688 75.652344 30.132812 C 75.539062 28.804688 75.433594 27.382812 75.335938 25.902344 C 75.328125 25.75 75.3125 25.589844 75.304688 25.441406 C 75.28125 25.121094 75.261719 24.761719 75.242188 24.371094 C 75.210938 23.839844 75.179688 23.300781 75.152344 22.757812 Z M 75.152344 22.757812 "/>
<path style=" stroke:none;fill-rule:nonzero;fill:rgb(100%,84.313725%,24.313725%);fill-opacity:1;" d="M 86.949219 22.121094 C 87.078125 22.550781 87.199219 22.984375 87.316406 23.417969 C 87.199219 22.984375 87.078125 22.550781 86.949219 22.121094 Z M 86.949219 22.121094 "/>
<path style=" stroke:none;fill-rule:nonzero;fill:rgb(100%,84.313725%,24.313725%);fill-opacity:1;" d="M 86.542969 20.792969 C 86.683594 21.234375 86.820312 21.675781 86.949219 22.121094 C 86.820312 21.675781 86.683594 21.234375 86.542969 20.792969 Z M 86.542969 20.792969 "/>
<path style=" stroke:none;fill-rule:nonzero;fill:rgb(100%,84.313725%,24.313725%);fill-opacity:1;" d="M 85.464844 17.640625 C 85.710938 18.3125 85.949219 18.992188 86.179688 19.675781 C 85.949219 18.992188 85.710938 18.3125 85.464844 17.640625 Z M 85.464844 17.640625 "/>
<path style=" stroke:none;fill-rule:nonzero;fill:rgb(100%,84.313725%,24.313725%);fill-opacity:1;" d="M 83.722656 13.355469 C 84.027344 14.042969 84.328125 14.746094 84.621094 15.460938 C 84.328125 14.746094 84.027344 14.042969 83.722656 13.355469 Z M 83.722656 13.355469 "/>
<path style=" stroke:none;fill-rule:nonzero;fill:rgb(100%,84.313725%,24.313725%);fill-opacity:1;" d="M 83.097656 12 C 83.308594 12.441406 83.515625 12.894531 83.722656 13.355469 C 83.515625 12.894531 83.308594 12.441406 83.097656 12 Z M 83.097656 12 "/>
<path style=" stroke:none;fill-rule:nonzero;fill:rgb(100%,84.313725%,24.313725%);fill-opacity:1;" d="M 82.457031 10.6875 C 82.671875 11.117188 82.886719 11.554688 83.097656 12 C 82.886719 11.554688 82.671875 11.117188 82.457031 10.6875 Z M 82.457031 10.6875 "/>
<path style=" stroke:none;fill-rule:nonzero;fill:rgb(100%,84.313725%,24.313725%);fill-opacity:1;" d="M 80.457031 7.101562 C 80.683594 7.464844 80.910156 7.84375 81.132812 8.234375 C 80.910156 7.84375 80.683594 7.464844 80.457031 7.101562 Z M 80.457031 7.101562 "/>
<path style=" stroke:none;fill-rule:nonzero;fill:rgb(100%,84.313725%,24.313725%);fill-opacity:1;" d="M 79.429688 5.535156 C 79.773438 6.027344 80.117188 6.550781 80.457031 7.101562 C 80.117188 6.550781 79.773438 6.027344 79.429688 5.535156 Z M 79.429688 5.535156 "/>
<path style=" stroke:none;fill-rule:nonzero;fill:rgb(100%,84.313725%,24.313725%);fill-opacity:1;" d="M 78.132812 3.828125 C 78.222656 3.929688 78.308594 4.039062 78.402344 4.152344 C 78.515625 4.296875 78.628906 4.441406 78.746094 4.59375 C 78.628906 4.441406 78.515625 4.296875 78.402344 4.152344 C 78.308594 4.039062 78.222656 3.929688 78.132812 3.828125 Z M 78.132812 3.828125 "/>
<path style=" stroke:none;fill-rule:nonzero;fill:rgb(100%,84.313725%,24.313725%);fill-opacity:1;" d="M 77.421875 3.046875 C 77.636719 3.257812 77.875 3.519531 78.132812 3.828125 C 77.875 3.519531 77.636719 3.257812 77.421875 3.046875 Z M 77.421875 3.046875 "/>
<path style=" stroke:none;fill-rule:nonzero;fill:rgb(100%,84.313725%,24.313725%);fill-opacity:1;" d="M 74.972656 16.417969 C 74.996094 18.386719 75.03125 20.136719 75.074219 21.125 C 75.097656 21.671875 75.125 22.214844 75.152344 22.757812 C 75.125 22.214844 75.097656 21.671875 75.074219 21.125 C 75.03125 20.136719 74.996094 18.386719 74.972656 16.417969 Z M 74.972656 16.417969 "/>
<path style=" stroke:none;fill-rule:nonzero;fill:rgb(100%,84.313725%,24.313725%);fill-opacity:1;" d="M 74.960938 7.660156 C 74.949219 8.421875 74.941406 9.394531 74.941406 10.464844 C 74.929688 11.691406 74.933594 13.015625 74.953125 14.398438 C 74.960938 15.082031 74.964844 15.761719 74.972656 16.417969 C 74.964844 15.761719 74.960938 15.082031 74.953125 14.398438 C 74.933594 13.015625 74.929688 11.691406 74.941406 10.464844 C 74.941406 9.394531 74.949219 8.421875 74.960938 7.660156 Z M 74.960938 7.660156 "/>
<path style=" stroke:none;fill-rule:nonzero;fill:rgb(100%,84.313725%,24.313725%);fill-opacity:1;" d="M 74.996094 6.332031 C 74.980469 6.628906 74.96875 7.085938 74.960938 7.660156 C 74.96875 7.085938 74.980469 6.628906 74.996094 6.332031 Z M 74.996094 6.332031 "/>
<path style=" stroke:none;fill-rule:nonzero;fill:rgb(100%,84.313725%,24.313725%);fill-opacity:1;" d="M 75.816406 2.476562 C 75.492188 2.769531 75.320312 3.292969 75.15625 4.65625 C 75.152344 4.667969 75.152344 4.679688 75.152344 4.691406 C 75.105469 5.085938 75.058594 5.539062 75.007812 6.089844 C 75.003906 6.152344 75 6.230469 74.996094 6.332031 C 75 6.230469 75.003906 6.152344 75.011719 6.089844 C 75.058594 5.539062 75.105469 5.085938 75.152344 4.691406 C 75.152344 4.679688 75.152344 4.667969 75.15625 4.65625 C 75.320312 3.292969 75.492188 2.769531 75.816406 2.476562 Z M 75.816406 2.476562 "/>
<path style=" stroke:none;fill-rule:nonzero;fill:rgb(100%,84.313725%,24.313725%);fill-opacity:1;" d="M 76.085938 14.503906 L 76.089844 15.597656 C 76.089844 15.859375 76.09375 16.179688 76.101562 16.53125 L 76.121094 17.367188 C 76.226562 20.964844 76.546875 27.109375 76.730469 28.53125 C 76.761719 28.769531 76.828125 29.511719 76.878906 30.1875 C 77.003906 31.792969 77.617188 36.5625 77.8125 37.441406 C 78.050781 38.492188 78.160156 38.609375 79.214844 38.949219 C 80.160156 39.253906 80.914062 39.617188 81.316406 39.917969 C 81.445312 40.003906 81.527344 40.082031 81.550781 40.136719 C 81.703125 40.328125 81.648438 40.472656 81.320312 40.519531 C 81.148438 40.542969 80.660156 40.457031 80.238281 40.332031 C 79.019531 39.964844 75.390625 39.269531 74.0625 39.144531 C 73.847656 39.125 73.617188 39.109375 73.378906 39.09375 C 72.492188 39.054688 71.46875 39.046875 70.105469 39.046875 C 69.25 39.050781 68.488281 39.0625 67.765625 39.082031 C 66.109375 39.152344 64.484375 39.28125 63.191406 39.464844 C 59.160156 40.03125 57.867188 40.304688 54.90625 41.21875 C 54.195312 41.4375 53.707031 41.582031 53.386719 41.703125 C 53.300781 41.738281 53.222656 41.773438 53.152344 41.804688 C 52.683594 42.03125 52.914062 42.203125 53.433594 42.753906 C 53.460938 42.785156 53.484375 42.8125 53.511719 42.839844 C 53.667969 42.992188 53.804688 43.144531 53.921875 43.300781 C 54.347656 43.808594 54.5 44.128906 54.402344 44.289062 C 54.230469 44.5625 53.863281 44.421875 53.128906 43.804688 C 50.941406 41.964844 44.929688 38.738281 40.210938 36.875 C 34.347656 34.558594 28.296875 32.878906 22.058594 31.835938 C 20.382812 31.554688 20.359375 31.472656 20.277344 32.546875 C 20.265625 32.9375 20.257812 33.394531 20.257812 33.902344 C 20.257812 34.433594 20.261719 34.847656 20.269531 35.195312 C 20.429688 36.734375 20.886719 38.167969 21.621094 39.398438 L 21.910156 39.890625 C 22.09375 40.144531 22.265625 40.335938 22.40625 40.425781 C 22.503906 40.484375 22.742188 40.613281 23.039062 40.769531 L 26.140625 42.316406 C 28.316406 43.398438 30.132812 44.285156 30.175781 44.285156 C 30.214844 44.285156 30.757812 44.519531 31.375 44.808594 C 35.605469 46.773438 43.773438 49.761719 46.019531 50.171875 C 46.917969 50.332031 47.09375 50.398438 47.121094 50.664062 C 47.125 50.675781 47.128906 50.683594 47.128906 50.695312 C 47.128906 50.703125 47.125 50.710938 47.125 50.71875 C 47.125 50.734375 47.128906 50.75 47.128906 50.769531 C 47.128906 50.957031 47.019531 51.054688 46.804688 51.070312 C 46.683594 51.078125 46.515625 51.082031 46.328125 51.078125 C 46.140625 51.085938 45.921875 51.078125 45.675781 51.058594 C 45.304688 51.039062 44.957031 51.011719 44.765625 50.980469 C 44.675781 50.976562 44.597656 50.976562 44.535156 50.972656 C 44.261719 51.113281 44.007812 52.019531 43.613281 54.179688 C 43.273438 56.027344 43.058594 58.210938 42.980469 60.273438 C 42.976562 61.476562 43.007812 62.925781 43.074219 64.710938 C 43.085938 64.828125 43.097656 64.949219 43.113281 65.0625 C 43.171875 65.542969 43.289062 67.53125 43.375 69.472656 C 43.625 75.113281 43.941406 77.246094 44.886719 79.660156 C 45.289062 80.691406 45.761719 81.628906 46.320312 82.488281 C 46.84375 83.289062 47.449219 84.035156 48.132812 84.722656 C 48.648438 85.242188 49.226562 85.738281 49.839844 86.203125 C 50.671875 86.820312 51.597656 87.386719 52.632812 87.914062 C 53.253906 88.230469 54.132812 88.601562 54.585938 88.742188 C 55.015625 88.875 55.292969 89.015625 55.40625 89.148438 C 55.457031 89.207031 55.484375 89.265625 55.484375 89.332031 C 55.484375 89.355469 55.480469 89.378906 55.472656 89.398438 C 55.449219 89.757812 54.941406 89.757812 53.609375 89.429688 C 51.289062 88.855469 48.054688 86.660156 46.316406 84.476562 L 45.742188 83.753906 C 45.683594 83.714844 45.636719 83.699219 45.59375 83.71875 L 45.511719 84.261719 C 45.457031 84.628906 45.34375 85.511719 45.261719 86.226562 C 44.964844 88.839844 42.992188 95.84375 41.597656 99.234375 C 41.445312 99.609375 41.316406 99.957031 41.253906 100.140625 C 41.242188 100.199219 41.230469 100.246094 41.226562 100.285156 C 41.261719 100.351562 41.519531 100.464844 41.832031 100.546875 C 42.988281 100.851562 44.542969 101.699219 45.195312 102.378906 C 45.84375 103.050781 45.984375 103.441406 45.710938 103.480469 C 45.550781 103.550781 45.25 103.464844 44.9375 103.242188 C 44.792969 103.167969 44.632812 103.082031 44.457031 102.972656 C 43.539062 102.414062 43 102.144531 42.34375 101.945312 C 42.304688 101.929688 42.265625 101.921875 42.222656 101.910156 C 42.027344 101.851562 41.816406 101.800781 41.582031 101.75 C 39.546875 101.304688 37.808594 101.597656 36.621094 102.554688 C 36.523438 102.640625 36.421875 102.734375 36.3125 102.839844 C 36.222656 102.925781 36.140625 103.011719 36.0625 103.097656 C 35.980469 103.195312 35.898438 103.300781 35.824219 103.40625 C 35.578125 103.761719 35.480469 103.917969 35.484375 104.0625 C 35.511719 104.136719 35.546875 104.230469 35.597656 104.335938 C 35.609375 104.359375 35.621094 104.378906 35.636719 104.402344 C 36.230469 105.351562 36.898438 106.753906 37.300781 107.886719 C 37.890625 109.554688 37.941406 110.179688 37.5 110.179688 C 37.316406 110.179688 37.105469 109.902344 36.816406 109.28125 C 36.101562 107.757812 35.125 105.941406 34.292969 104.515625 C 33.570312 103.304688 32.910156 102.304688 32.683594 102.125 C 32.640625 102.101562 32.617188 102.105469 32.609375 102.148438 C 32.574219 102.3125 32.945312 103.851562 33.390625 105.414062 C 33.511719 105.773438 33.574219 106.019531 33.570312 106.183594 C 33.574219 106.316406 33.535156 106.398438 33.457031 106.476562 C 33.308594 106.621094 33.183594 106.554688 32.816406 106.128906 C 32.0625 105.265625 31.277344 102.742188 31.277344 101.195312 C 31.277344 100.929688 31.242188 100.714844 31.171875 100.5625 C 31.140625 100.503906 31.113281 100.457031 31.078125 100.425781 C 31.019531 100.363281 30.972656 100.324219 30.941406 100.3125 C 30.917969 100.324219 30.894531 100.339844 30.875 100.367188 C 30.855469 100.425781 30.851562 100.566406 30.847656 100.757812 C 30.855469 100.910156 30.871094 101.105469 30.890625 101.367188 C 30.984375 102.589844 31.226562 103.703125 31.730469 105.257812 C 31.894531 105.757812 31.988281 106.257812 31.945312 106.375 C 31.722656 106.957031 30.960938 106.230469 30.433594 104.929688 C 30.160156 104.253906 30.140625 104.238281 30.132812 104.664062 C 30.113281 105.925781 30.875 109.429688 31.949219 112.988281 C 33.691406 118.773438 36.558594 124.058594 38.515625 125.085938 C 38.742188 125.203125 38.84375 125.246094 38.941406 125.175781 C 38.972656 125.148438 39.007812 125.109375 39.046875 125.066406 C 39.082031 125.023438 39.117188 124.96875 39.164062 124.902344 C 39.382812 124.566406 39.425781 124.097656 39.464844 121.601562 C 39.5 119.417969 39.558594 118.675781 39.695312 118.621094 C 40.175781 118.4375 40.503906 119.214844 40.640625 120.765625 C 40.746094 121.535156 40.796875 122.441406 40.765625 123.34375 L 40.71875 124.546875 L 40.777344 124.582031 L 41.21875 124.769531 C 42.316406 125.230469 42.742188 125.332031 44.996094 125.351562 C 45.511719 125.355469 46.011719 125.355469 46.765625 125.359375 C 49.800781 125.351562 52.910156 125.226562 53.761719 125.070312 C 53.882812 125.046875 54.707031 124.980469 55.589844 124.925781 C 56.902344 124.839844 57.207031 124.777344 57.253906 124.585938 C 57.316406 124.316406 57.207031 124.109375 55.414062 121.1875 C 50.667969 113.453125 47.644531 107.046875 46.585938 102.484375 C 46.410156 101.722656 46.289062 100.976562 46.234375 100.335938 C 46.179688 99.90625 46.148438 99.527344 46.144531 99.238281 C 46.125 98.964844 46.132812 98.8125 46.179688 98.742188 C 46.195312 98.671875 46.21875 98.625 46.25 98.605469 C 46.292969 98.578125 46.34375 98.570312 46.394531 98.574219 C 46.410156 98.566406 46.421875 98.558594 46.4375 98.558594 C 46.597656 98.527344 46.695312 98.617188 46.761719 98.851562 C 46.808594 98.933594 46.839844 99.023438 46.839844 99.117188 C 46.839844 99.128906 46.84375 99.160156 46.847656 99.183594 C 47.308594 101.027344 48.582031 105.144531 49.097656 106.441406 C 49.601562 107.703125 50.578125 109.957031 51.15625 111.214844 C 51.3125 111.535156 51.472656 111.855469 51.636719 112.183594 C 51.738281 112.351562 52.042969 112.917969 52.375 113.5625 C 52.746094 114.273438 53.164062 115.050781 53.304688 115.289062 C 53.445312 115.527344 53.777344 116.109375 54.039062 116.582031 C 54.300781 117.058594 54.628906 117.609375 54.761719 117.808594 C 54.898438 118.003906 55.171875 118.457031 55.375 118.8125 C 55.574219 119.167969 56.359375 120.472656 57.121094 121.707031 C 57.867188 122.914062 58.3125 123.734375 58.457031 124.148438 C 58.488281 124.226562 58.507812 124.289062 58.507812 124.320312 C 58.507812 124.324219 58.507812 124.335938 58.507812 124.34375 C 58.507812 124.351562 58.507812 124.363281 58.507812 124.371094 C 58.507812 124.597656 58.316406 125.1875 58.082031 125.683594 C 57.882812 126.105469 57.75 126.457031 57.75 126.554688 C 57.808594 126.546875 57.9375 126.5 58.09375 126.433594 C 58.210938 126.375 58.347656 126.304688 58.488281 126.222656 C 58.992188 125.933594 59.328125 125.820312 59.582031 125.890625 C 59.753906 125.921875 59.878906 126.042969 59.996094 126.253906 C 60.015625 126.292969 60.039062 126.328125 60.058594 126.371094 L 60.125 126.5 C 60.195312 126.628906 60.246094 126.722656 60.285156 126.78125 C 60.335938 126.796875 60.390625 126.789062 60.457031 126.761719 L 60.914062 126.371094 C 61.035156 126.269531 61.160156 126.175781 61.277344 126.097656 C 61.28125 126.09375 61.285156 126.089844 61.292969 126.085938 C 61.359375 126.042969 61.425781 125.996094 61.484375 125.964844 C 61.574219 125.90625 61.644531 125.863281 61.671875 125.863281 C 61.679688 125.863281 61.6875 125.867188 61.695312 125.871094 C 61.710938 125.867188 61.726562 125.863281 61.738281 125.863281 C 61.800781 125.863281 61.898438 125.925781 62.003906 126.023438 C 62.125 126.109375 62.238281 126.25 62.355469 126.449219 C 62.382812 126.492188 62.410156 126.53125 62.4375 126.574219 C 62.566406 126.742188 62.6875 126.863281 62.742188 126.867188 C 62.785156 126.859375 62.902344 126.796875 63.0625 126.699219 C 63.226562 126.597656 63.429688 126.453125 63.640625 126.296875 C 64 126.023438 64.398438 125.796875 64.605469 125.738281 C 64.617188 125.730469 64.625 125.730469 64.636719 125.726562 C 64.644531 125.722656 64.652344 125.71875 64.65625 125.71875 C 64.65625 125.71875 64.65625 125.722656 64.660156 125.722656 C 64.660156 125.722656 64.664062 125.71875 64.664062 125.71875 C 64.667969 125.71875 64.671875 125.722656 64.675781 125.722656 C 64.679688 125.722656 64.6875 125.71875 64.691406 125.71875 C 64.871094 125.71875 65.148438 125.964844 65.425781 126.367188 C 65.800781 126.914062 65.957031 127.054688 66.363281 126.710938 C 66.40625 126.671875 66.449219 126.628906 66.496094 126.585938 C 66.628906 126.457031 66.777344 126.300781 66.96875 126.09375 C 67.300781 125.726562 67.566406 125.519531 67.859375 125.453125 C 67.890625 125.441406 67.914062 125.433594 67.929688 125.433594 C 67.9375 125.433594 67.953125 125.4375 67.960938 125.4375 C 68.226562 125.402344 68.527344 125.480469 68.933594 125.648438 C 69.097656 125.714844 69.25 125.773438 69.359375 125.8125 C 69.429688 125.820312 69.488281 125.824219 69.523438 125.808594 C 69.496094 125.71875 69.398438 125.515625 69.261719 125.265625 C 69.140625 125.105469 69.046875 124.945312 68.972656 124.761719 L 68.8125 124.519531 L 68.808594 124.460938 L 68.667969 124.207031 L 68.628906 121.332031 C 68.582031 117.402344 68.109375 112.410156 67.257812 106.796875 C 66.964844 105.039062 66.640625 103.289062 66.28125 101.585938 C 66.15625 101.042969 66.019531 100.445312 65.847656 99.710938 C 65.703125 99.105469 65.597656 98.628906 65.519531 98.234375 C 65.402344 97.765625 65.335938 97.457031 65.324219 97.269531 C 65.324219 97.269531 65.324219 97.265625 65.324219 97.265625 C 65.285156 97.105469 65.296875 97.011719 65.363281 96.96875 C 65.371094 96.949219 65.378906 96.933594 65.386719 96.925781 C 65.570312 96.742188 65.738281 96.824219 66.007812 97.296875 C 66.128906 97.484375 66.257812 97.738281 66.390625 98.054688 C 66.390625 98.058594 66.390625 98.058594 66.394531 98.0625 C 66.945312 99.257812 67.394531 100.894531 67.878906 103.488281 C 68.058594 104.441406 68.253906 105.273438 68.316406 105.339844 C 68.378906 105.410156 68.46875 105.152344 68.523438 104.765625 C 68.640625 103.890625 69.539062 100.941406 69.914062 100.207031 C 70.082031 99.882812 70.238281 99.714844 70.386719 99.707031 C 70.5 99.644531 70.597656 99.683594 70.683594 99.820312 C 70.691406 99.832031 70.6875 99.910156 70.675781 100.011719 C 70.675781 100.074219 70.667969 100.148438 70.660156 100.234375 C 70.640625 100.628906 70.511719 101.292969 70.261719 102.410156 C 68.839844 108.820312 68.800781 109.15625 69.164062 112 C 69.546875 115.011719 69.890625 119.730469 69.890625 122.011719 C 69.890625 123.710938 69.917969 123.898438 70.28125 124.636719 C 70.542969 125.171875 70.691406 125.398438 70.878906 125.40625 C 70.949219 125.382812 71.046875 125.34375 71.15625 125.296875 C 71.195312 125.273438 71.230469 125.25 71.269531 125.21875 C 71.453125 125.078125 71.617188 125.007812 71.78125 125.007812 L 71.933594 124.933594 L 71.945312 124.925781 L 71.945312 124.929688 L 71.949219 124.929688 L 72.105469 125.101562 C 72.304688 125.21875 72.527344 125.441406 72.800781 125.789062 C 72.976562 126.015625 73.144531 126.21875 73.28125 126.363281 C 73.402344 126.472656 73.496094 126.535156 73.566406 126.554688 C 73.609375 126.492188 73.636719 126.328125 73.636719 126.140625 C 73.636719 125.5625 73.871094 125.144531 74.195312 125.144531 C 74.339844 125.144531 74.902344 125.433594 75.453125 125.789062 C 76 126.140625 76.484375 126.433594 76.527344 126.433594 C 76.570312 126.4375 76.601562 126.097656 76.597656 125.683594 C 76.597656 125.65625 76.597656 125.636719 76.597656 125.609375 C 76.59375 125.53125 76.59375 125.457031 76.601562 125.386719 C 76.613281 125.046875 76.660156 124.941406 76.816406 124.902344 C 76.863281 124.871094 76.917969 124.855469 76.980469 124.855469 C 76.992188 124.855469 77.011719 124.867188 77.035156 124.886719 C 77.183594 124.917969 77.300781 125.050781 77.4375 125.335938 C 77.589844 125.660156 77.832031 125.890625 78.128906 125.992188 C 78.3125 126.058594 78.480469 126.097656 78.574219 126.101562 C 78.578125 126.101562 78.585938 126.101562 78.589844 126.101562 C 78.621094 126.082031 78.632812 126.050781 78.632812 126 C 78.601562 125.882812 78.511719 125.664062 78.390625 125.425781 C 78.105469 124.871094 78.101562 124.796875 78.308594 124.589844 C 78.515625 124.382812 78.585938 124.414062 79.09375 124.90625 C 79.386719 125.195312 79.5625 125.332031 79.761719 125.386719 C 79.789062 125.394531 79.820312 125.398438 79.847656 125.402344 C 79.863281 125.402344 79.878906 125.40625 79.894531 125.410156 C 79.976562 125.417969 80.066406 125.414062 80.167969 125.40625 L 80.683594 125.359375 L 80.667969 125.335938 L 80.492188 125.101562 L 80.125 124.660156 C 79.9375 124.433594 79.773438 124.1875 79.667969 123.992188 C 79.652344 123.964844 79.640625 123.941406 79.628906 123.917969 C 79.578125 123.8125 79.546875 123.722656 79.546875 123.671875 C 79.546875 123.664062 79.546875 123.652344 79.550781 123.648438 C 79.546875 123.640625 79.546875 123.632812 79.546875 123.625 C 79.546875 123.488281 79.699219 123.117188 79.996094 122.527344 C 80.351562 121.753906 80.8125 120.839844 80.988281 120.609375 C 81.566406 119.867188 84.457031 114.144531 85.308594 112.050781 C 87.429688 106.824219 88.300781 102.78125 88.832031 95.648438 C 88.910156 94.605469 88.96875 93.902344 89.027344 93.410156 C 89.058594 93.058594 89.089844 92.832031 89.144531 92.738281 C 89.246094 92.390625 89.375 92.453125 89.601562 92.679688 C 89.953125 93.03125 90.015625 96.464844 89.710938 99.25 C 89.09375 104.988281 87.851562 109.535156 85.253906 115.039062 C 84.910156 115.804688 84.609375 116.441406 84.441406 116.726562 C 84.417969 116.773438 84.351562 116.894531 84.308594 116.96875 C 83.742188 118.085938 83.125 119.246094 82.445312 120.46875 C 81.671875 121.851562 81.027344 123.066406 80.878906 123.402344 C 80.867188 123.425781 80.867188 123.429688 80.863281 123.445312 C 80.855469 123.46875 80.855469 123.484375 80.851562 123.5 C 80.859375 123.585938 80.953125 123.765625 81.066406 123.914062 C 81.234375 124.136719 82.066406 124.277344 83.3125 124.339844 C 83.898438 124.347656 84.644531 124.351562 85.660156 124.351562 C 86.351562 124.351562 87.035156 124.34375 87.695312 124.332031 C 89.808594 124.25 92.191406 124.074219 94.503906 123.808594 C 95.289062 123.714844 95.96875 123.625 96.371094 123.566406 C 96.789062 123.484375 96.917969 123.371094 96.976562 123.050781 C 96.976562 123.03125 96.980469 123.015625 96.980469 122.996094 C 96.980469 122.894531 96.992188 122.800781 97.015625 122.714844 C 97.054688 122.453125 97.113281 122.367188 97.289062 122.34375 C 97.371094 122.304688 97.460938 122.304688 97.546875 122.351562 C 97.726562 122.390625 97.808594 122.515625 97.898438 122.839844 C 98.089844 123.539062 98.632812 124.332031 99.015625 124.507812 C 99.042969 124.519531 99.066406 124.527344 99.09375 124.535156 C 99.101562 124.539062 99.113281 124.542969 99.121094 124.542969 C 99.632812 124.617188 100.429688 123.992188 101.320312 122.828125 C 104.121094 119.164062 106.425781 112.054688 106.828125 105.960938 C 106.835938 105.785156 106.84375 105.617188 106.847656 105.433594 L 106.902344 103.609375 C 106.902344 103.574219 106.898438 103.554688 106.898438 103.527344 C 106.890625 103.484375 106.882812 103.445312 106.875 103.414062 L 106.699219 104.371094 C 106.582031 105.304688 106.378906 106.175781 106.148438 106.8125 C 106.050781 107.105469 105.953125 107.324219 105.851562 107.472656 C 105.722656 107.683594 105.597656 107.804688 105.480469 107.804688 C 105.429688 107.804688 105.390625 107.785156 105.363281 107.738281 C 105.277344 107.734375 105.230469 107.707031 105.21875 107.527344 C 105.203125 107.375 105.222656 107.105469 105.261719 106.621094 C 105.292969 106.265625 105.328125 105.921875 105.355469 105.632812 C 105.390625 105.144531 105.4375 104.648438 105.484375 104.308594 C 105.648438 103.078125 105.667969 100.476562 105.519531 100.402344 C 105.46875 100.398438 105.398438 100.441406 105.328125 100.515625 C 105.167969 100.75 105.054688 101.328125 104.984375 102.273438 C 104.863281 103.992188 104.535156 105.664062 104.171875 106.660156 C 104.140625 106.746094 104.109375 106.824219 104.078125 106.902344 C 103.898438 107.332031 103.710938 107.589844 103.539062 107.589844 C 103.402344 107.589844 103.3125 107.554688 103.269531 107.429688 C 103.1875 107.21875 103.230469 106.765625 103.375 105.847656 C 103.496094 105.105469 103.628906 103.882812 103.675781 103.128906 L 103.753906 101.878906 C 103.71875 101.90625 103.679688 101.949219 103.632812 102.011719 L 103.179688 102.914062 C 101.769531 105.714844 100.222656 110.046875 99.296875 113.777344 C 98.847656 115.59375 98.742188 115.863281 98.492188 115.863281 C 98.488281 115.863281 98.488281 115.863281 98.484375 115.863281 C 98.484375 115.863281 98.480469 115.863281 98.480469 115.863281 C 98.414062 115.863281 98.367188 115.851562 98.328125 115.828125 C 98.316406 115.820312 98.308594 115.8125 98.296875 115.800781 C 98.253906 115.757812 98.226562 115.683594 98.207031 115.566406 C 98.136719 115.359375 98.125 115.027344 98.15625 114.601562 C 98.1875 113.027344 98.824219 110.601562 100.109375 107.167969 L 100.683594 105.632812 C 100.710938 105.429688 100.589844 105.257812 100.15625 104.78125 L 99.152344 103.824219 C 97.324219 102.078125 95.972656 101.285156 94.546875 101.195312 C 94.457031 101.195312 94.363281 101.191406 94.257812 101.191406 C 94.125 101.191406 93.988281 101.195312 93.847656 101.207031 C 93.671875 101.222656 93.496094 101.246094 93.3125 101.28125 C 92.339844 101.46875 91.007812 102.007812 90.59375 102.378906 C 90.367188 102.585938 90.320312 102.601562 90.171875 102.414062 C 90.117188 102.390625 90.085938 102.34375 90.078125 102.28125 C 89.933594 102.058594 90.015625 101.945312 90.667969 101.320312 C 90.695312 101.292969 90.71875 101.273438 90.746094 101.25 C 90.75 101.246094 90.757812 101.238281 90.761719 101.234375 C 90.769531 101.230469 90.773438 101.222656 90.78125 101.21875 C 91.5 100.5625 92.214844 100.242188 93.414062 100.042969 C 93.710938 99.992188 93.953125 99.886719 93.953125 99.808594 C 93.953125 99.726562 93.476562 98.742188 92.898438 97.621094 C 90.625 93.222656 89.441406 89.742188 89.042969 86.296875 C 88.949219 85.464844 88.832031 84.742188 88.78125 84.6875 C 88.734375 84.632812 88.144531 85.042969 87.46875 85.597656 C 86.796875 86.15625 85.984375 86.785156 85.667969 86.992188 C 85.347656 87.203125 84.847656 87.558594 84.554688 87.785156 C 83.6875 88.453125 81.378906 89.667969 80.273438 90.046875 C 79.414062 90.335938 79.222656 90.363281 79.121094 90.195312 C 79.09375 90.152344 79.078125 90.101562 79.066406 90.054688 C 79.03125 89.992188 79.015625 89.9375 79.035156 89.902344 C 79.039062 89.898438 79.050781 89.886719 79.058594 89.878906 C 79.078125 89.730469 79.152344 89.605469 79.265625 89.605469 C 79.414062 89.605469 82 88.070312 83.21875 87.257812 C 85.230469 85.917969 87.660156 83.941406 89.382812 82.273438 C 89.890625 81.753906 90.398438 81.21875 90.863281 80.703125 C 91.585938 79.851562 92.515625 78.664062 93.054688 77.910156 C 93.195312 77.699219 93.332031 77.496094 93.457031 77.304688 C 93.46875 77.277344 93.484375 77.25 93.492188 77.234375 C 93.53125 77.113281 93.683594 76.847656 93.828125 76.640625 L 94.058594 76.308594 C 94.066406 76.292969 94.074219 76.277344 94.078125 76.261719 L 93.378906 76.179688 C 92.347656 76.058594 91.144531 75.417969 90.402344 74.589844 C 89.398438 73.472656 88.917969 72.128906 88.90625 70.390625 C 88.90625 70.355469 88.90625 70.320312 88.90625 70.28125 C 88.90625 70.273438 88.90625 70.265625 88.90625 70.257812 C 88.90625 70.230469 88.90625 70.203125 88.90625 70.175781 C 88.90625 70.128906 88.910156 70.082031 88.910156 70.035156 C 88.949219 68.667969 89.269531 67.625 89.894531 66.792969 C 90.015625 66.625 90.148438 66.46875 90.289062 66.316406 C 90.292969 66.3125 90.292969 66.308594 90.296875 66.308594 C 90.308594 66.292969 90.320312 66.28125 90.335938 66.269531 C 91.261719 65.261719 92.285156 64.820312 93.699219 64.800781 C 94.121094 64.792969 94.46875 64.753906 94.519531 64.707031 C 94.523438 64.699219 94.523438 64.691406 94.523438 64.683594 C 94.515625 64.609375 94.355469 64.144531 94.152344 63.617188 C 93.152344 60.972656 92.417969 58.480469 91.9375 56.082031 C 91.527344 54.046875 91 51.9375 90.542969 50.542969 C 90.050781 49.03125 88.902344 46.59375 88.265625 45.710938 C 87.984375 45.320312 87.757812 44.972656 87.757812 44.929688 C 87.757812 44.890625 87.402344 44.394531 86.964844 43.828125 C 86.445312 43.152344 86.195312 42.730469 86.1875 42.5 C 86.164062 42.347656 86.234375 42.269531 86.394531 42.269531 C 86.402344 42.269531 86.410156 42.273438 86.417969 42.273438 C 86.425781 42.273438 86.429688 42.269531 86.4375 42.269531 C 86.441406 42.269531 86.445312 42.273438 86.453125 42.273438 C 86.472656 42.273438 86.496094 42.269531 86.519531 42.269531 C 86.769531 42.269531 87.160156 42.585938 87.894531 43.382812 L 88.921875 44.496094 L 88.902344 42.742188 L 88.867188 41.40625 C 88.855469 41.019531 88.839844 40.628906 88.824219 40.242188 C 88.625 36.628906 88.082031 32 87.453125 28.738281 C 87.417969 28.558594 87.382812 28.378906 87.34375 28.199219 C 86.925781 26.191406 85.90625 22.386719 85.183594 20.15625 C 84.402344 17.75 84.394531 17.738281 82.703125 16.589844 C 80.785156 15.296875 79.179688 14.707031 77.132812 14.542969 L 76.613281 14.503906 Z M 85.011719 52.425781 C 86.78125 52.449219 88.46875 53.515625 89.320312 55.347656 C 89.851562 56.488281 89.847656 58.242188 89.308594 59.390625 C 88.851562 60.367188 87.917969 61.289062 86.96875 61.707031 C 86.082031 62.097656 84.578125 62.207031 83.84375 61.933594 C 82.347656 61.375 81.34375 60.46875 80.71875 59.109375 C 80.226562 58.035156 80.207031 56.351562 80.675781 55.304688 C 81.179688 54.171875 81.894531 53.414062 82.941406 52.902344 C 83.613281 52.570312 84.320312 52.417969 85.011719 52.425781 Z M 5.273438 52.816406 C 5.035156 52.820312 4.894531 52.835938 4.875 52.871094 C 4.800781 52.996094 5.316406 54.453125 6.59375 57.738281 C 7.371094 59.730469 7.851562 60.863281 9.449219 64.5 C 10.613281 67.148438 13.164062 72.316406 13.925781 73.566406 C 14.277344 74.148438 14.566406 74.660156 14.566406 74.707031 C 14.566406 74.714844 14.582031 74.746094 14.59375 74.769531 C 14.757812 75.046875 14.894531 75.273438 15.003906 75.445312 C 15.035156 75.496094 15.066406 75.542969 15.101562 75.597656 L 15.359375 75.984375 L 15.59375 76.332031 L 16.8125 76.347656 L 17.730469 76.304688 C 19.914062 76.203125 27.554688 76.414062 32.128906 76.703125 C 32.296875 76.714844 32.394531 76.722656 32.542969 76.734375 C 34.230469 76.820312 34.691406 76.867188 34.859375 77.039062 C 34.890625 77.0625 34.914062 77.089844 34.929688 77.113281 C 35.046875 77.300781 34.910156 77.925781 34.34375 79.777344 C 32.890625 84.519531 31.222656 90.34375 30.855469 91.902344 C 30.800781 92.15625 30.785156 92.289062 30.800781 92.332031 C 30.886719 92.382812 31.480469 92.609375 32.179688 92.855469 C 36.695312 94.421875 39.398438 95.460938 40.003906 95.855469 C 40.035156 95.875 40.066406 95.90625 40.101562 95.941406 L 40.289062 96.03125 L 40.40625 96.40625 C 40.46875 96.53125 40.527344 96.664062 40.570312 96.792969 C 40.703125 97.191406 40.855469 97.519531 40.90625 97.519531 C 40.960938 97.519531 41.25 96.824219 41.546875 95.972656 C 42.082031 94.433594 42.5625 92.765625 42.484375 92.691406 C 42.460938 92.667969 41.214844 92.058594 39.714844 91.339844 C 38.214844 90.617188 36.957031 90 36.925781 89.96875 C 36.734375 89.777344 36.921875 89.121094 37.355469 88.441406 C 37.628906 88.011719 37.894531 87.566406 37.949219 87.449219 C 38.058594 87.207031 39.015625 85.835938 40.644531 83.582031 C 41.238281 82.765625 41.820312 81.953125 41.941406 81.78125 C 42.058594 81.609375 42.46875 81.035156 42.847656 80.507812 L 43.378906 79.769531 C 43.472656 79.621094 43.519531 79.527344 43.523438 79.484375 L 43.257812 78.570312 C 42.679688 76.589844 42.257812 73.71875 42.234375 71.621094 C 42.230469 71.027344 42.160156 69.410156 42.082031 68.023438 C 42.003906 66.640625 41.898438 64.710938 41.847656 63.734375 L 41.757812 62.089844 L 41.75 61.960938 L 40.929688 61.550781 C 40.480469 61.320312 39.308594 60.800781 38.324219 60.394531 C 30.429688 57.117188 23.15625 55.0625 14.710938 53.722656 C 11.972656 53.289062 7.28125 52.84375 5.542969 52.816406 C 5.441406 52.816406 5.351562 52.816406 5.273438 52.816406 Z M 56.605469 53.996094 C 56.699219 53.992188 56.796875 53.996094 56.894531 54 C 57.722656 54.011719 58.058594 54.085938 58.6875 54.382812 C 59.382812 54.707031 60.015625 55.234375 60.507812 55.878906 C 60.6875 56.105469 60.832031 56.324219 60.949219 56.558594 C 60.992188 56.636719 61.035156 56.71875 61.074219 56.800781 C 61.390625 57.46875 61.449219 57.785156 61.445312 58.816406 C 61.4375 59.863281 61.378906 60.160156 61.023438 60.882812 C 60.546875 61.847656 59.628906 62.730469 58.582031 63.222656 C 57.554688 63.707031 55.71875 63.707031 54.691406 63.222656 C 53.421875 62.625 52.5 61.578125 52.0625 60.378906 C 52.007812 60.253906 51.972656 60.136719 51.945312 60.019531 C 51.726562 59.234375 51.714844 58.394531 51.949219 57.582031 C 52.375 56.082031 53.230469 55.058594 54.621094 54.382812 C 55.273438 54.0625 55.589844 54 56.566406 53.996094 C 56.578125 53.996094 56.589844 53.996094 56.601562 53.996094 Z M 74.660156 60.011719 C 75.207031 60.03125 75.511719 60.195312 75.511719 60.484375 C 75.511719 60.832031 75.109375 61.511719 74.757812 61.757812 C 74.636719 61.84375 74.527344 61.898438 74.421875 61.929688 C 74.40625 61.9375 74.386719 61.941406 74.371094 61.945312 C 74.359375 61.945312 74.351562 61.949219 74.339844 61.949219 C 74.316406 61.953125 74.292969 61.957031 74.273438 61.957031 C 74.078125 61.964844 73.867188 61.898438 73.550781 61.742188 C 73.304688 61.617188 72.996094 61.332031 72.863281 61.109375 C 72.714844 60.855469 72.664062 60.75 72.714844 60.640625 C 72.71875 60.632812 72.71875 60.625 72.71875 60.617188 C 72.746094 60.550781 72.804688 60.484375 72.890625 60.425781 C 72.894531 60.421875 72.894531 60.421875 72.894531 60.421875 C 73.074219 60.242188 73.480469 60.109375 74.039062 60.042969 C 74.273438 60.015625 74.480469 60.003906 74.660156 60.011719 Z M 74.511719 63.824219 C 74.675781 63.824219 74.832031 63.84375 74.992188 63.882812 C 75.308594 63.953125 76.640625 64.503906 77.953125 65.109375 C 79.328125 65.742188 80.160156 66.089844 80.8125 66.21875 C 81.183594 66.261719 81.554688 66.261719 81.910156 66.21875 C 82.164062 66.164062 82.429688 66.074219 82.734375 65.953125 C 83.832031 65.515625 83.8125 65.519531 83.914062 65.785156 C 84.03125 66.085938 83.496094 66.691406 82.808594 67.039062 C 82.417969 67.238281 82.226562 67.339844 82.117188 67.542969 C 82.0625 67.695312 82.015625 67.886719 81.976562 68.128906 C 81.960938 68.242188 81.945312 68.363281 81.929688 68.507812 C 81.796875 69.726562 81.378906 71.464844 80.625 73.921875 C 79.441406 77.792969 77.835938 81.011719 76.238281 82.738281 C 74.648438 84.453125 73.117188 84.9375 71.386719 84.273438 C 71.230469 84.210938 71.078125 84.136719 70.921875 84.054688 C 70.769531 83.984375 70.632812 83.90625 70.488281 83.800781 C 67.464844 81.808594 64.667969 75.832031 63.839844 69.320312 C 63.769531 68.785156 63.699219 68.429688 63.617188 68.207031 C 63.613281 68.199219 63.609375 68.191406 63.605469 68.183594 C 63.59375 68.148438 63.578125 68.117188 63.5625 68.089844 C 63.5625 68.085938 63.558594 68.082031 63.554688 68.078125 C 63.519531 68.019531 63.484375 67.976562 63.445312 67.953125 C 63.347656 67.894531 63.117188 67.710938 62.878906 67.503906 C 62.796875 67.433594 62.714844 67.363281 62.636719 67.289062 C 62.234375 66.929688 62.101562 66.714844 62.15625 66.535156 C 62.15625 66.53125 62.160156 66.527344 62.160156 66.523438 C 62.160156 66.519531 62.160156 66.519531 62.160156 66.519531 C 62.167969 66.496094 62.175781 66.476562 62.1875 66.460938 C 62.222656 66.375 62.261719 66.328125 62.382812 66.335938 C 62.441406 66.335938 62.519531 66.355469 62.621094 66.386719 C 62.621094 66.386719 62.621094 66.386719 62.625 66.386719 C 62.644531 66.394531 62.667969 66.402344 62.6875 66.410156 C 62.910156 66.480469 63.234375 66.601562 63.738281 66.792969 C 64.464844 67.066406 64.992188 67.160156 65.765625 67.160156 C 67.035156 67.160156 67.648438 66.933594 70.863281 65.257812 C 70.964844 65.207031 71.042969 65.167969 71.136719 65.117188 C 71.261719 65.054688 71.390625 64.988281 71.511719 64.925781 C 73.117188 64.109375 73.882812 63.816406 74.511719 63.824219 Z M 50.269531 67.363281 C 51.304688 67.363281 52.355469 67.691406 53.265625 68.269531 C 53.890625 68.636719 54.425781 69.125 54.847656 69.722656 C 55.082031 70.03125 55.285156 70.367188 55.449219 70.722656 C 55.65625 71.171875 55.753906 71.449219 55.796875 71.921875 C 55.953125 72.65625 55.957031 73.398438 55.828125 74.109375 C 55.796875 74.765625 55.695312 75.011719 55.359375 75.683594 C 54.433594 77.523438 52.777344 78.625 50.585938 78.859375 C 50.230469 78.898438 49.644531 78.871094 49.289062 78.800781 C 48.605469 78.667969 47.988281 78.449219 47.433594 78.148438 C 47.234375 78.058594 47.074219 77.976562 47.011719 77.925781 C 46.9375 77.867188 46.863281 77.804688 46.785156 77.738281 C 46.042969 77.191406 45.457031 76.472656 45.046875 75.59375 C 45.039062 75.582031 45.035156 75.570312 45.027344 75.5625 C 44.871094 75.230469 44.773438 74.996094 44.714844 74.730469 C 44.636719 74.488281 44.574219 74.242188 44.519531 73.980469 C 44.382812 73.308594 44.378906 72.914062 44.507812 72.285156 C 45.03125 69.679688 46.757812 67.960938 49.378906 67.449219 C 49.671875 67.390625 49.972656 67.363281 50.269531 67.363281 Z M 50.269531 67.363281 "/>
<path style=" stroke:none;fill-rule:nonzero;fill:rgb(93.333333%,30.588235%,21.176471%);fill-opacity:1;" d="M 93.914062 65.976562 C 93.390625 65.96875 92.777344 66.074219 92.296875 66.285156 C 91.457031 66.652344 90.699219 67.484375 90.34375 68.425781 C 89.957031 69.457031 89.988281 71.113281 90.390625 72.273438 C 90.46875 72.480469 90.558594 72.675781 90.652344 72.863281 C 91.070312 73.621094 91.785156 74.367188 92.441406 74.703125 C 92.949219 74.96875 94.074219 75 94.589844 74.765625 C 95.261719 74.460938 95.914062 71.699219 95.765625 69.808594 C 95.636719 68.230469 95.195312 66.429688 94.875 66.199219 C 94.675781 66.054688 94.324219 65.980469 93.914062 65.976562 Z M 50.300781 68.441406 C 50.058594 68.441406 49.820312 68.460938 49.585938 68.507812 C 47.472656 68.921875 46.082031 70.304688 45.660156 72.402344 C 45.558594 72.910156 45.5625 73.226562 45.671875 73.769531 C 45.714844 73.976562 45.765625 74.179688 45.828125 74.371094 C 45.875 74.585938 45.953125 74.773438 46.082031 75.039062 C 46.085938 75.046875 46.089844 75.058594 46.09375 75.066406 C 46.425781 75.773438 46.898438 76.355469 47.496094 76.792969 C 47.558594 76.847656 47.617188 76.898438 47.675781 76.945312 C 47.726562 76.984375 47.855469 77.050781 48.019531 77.121094 C 48.460938 77.363281 48.960938 77.542969 49.511719 77.648438 C 49.796875 77.707031 50.265625 77.726562 50.554688 77.695312 C 52.316406 77.507812 53.652344 76.621094 54.394531 75.140625 C 54.667969 74.597656 54.75 74.398438 54.773438 73.871094 C 54.878906 73.296875 54.875 72.703125 54.75 72.109375 C 54.714844 71.730469 54.636719 71.503906 54.46875 71.144531 C 54.335938 70.859375 54.175781 70.589844 53.988281 70.339844 C 53.644531 69.859375 53.214844 69.464844 52.710938 69.167969 C 51.976562 68.707031 51.132812 68.441406 50.300781 68.441406 Z M 50.300781 68.441406 "/>
<path style=" stroke:none;fill-rule:nonzero;fill:rgb(100%,100%,100%);fill-opacity:1;" d="M 84.183594 53.78125 C 83.363281 53.78125 82.574219 54.585938 82.570312 55.429688 C 82.570312 55.4375 82.570312 55.445312 82.570312 55.453125 C 82.578125 55.789062 82.746094 56.203125 82.980469 56.519531 C 82.988281 56.527344 82.992188 56.535156 83 56.542969 C 83.039062 56.582031 83.082031 56.625 83.128906 56.675781 C 83.21875 56.765625 83.308594 56.84375 83.398438 56.910156 C 83.871094 57.179688 84.703125 57.128906 85.175781 56.792969 C 85.761719 56.375 85.980469 55.578125 85.691406 54.890625 C 85.453125 54.320312 84.722656 53.78125 84.183594 53.78125 Z M 56.824219 55.222656 C 56.78125 55.226562 56.738281 55.226562 56.695312 55.230469 C 55.503906 55.355469 54.863281 56.535156 55.398438 57.617188 C 55.539062 57.875 55.746094 58.109375 55.976562 58.285156 C 56.546875 58.65625 57.324219 58.625 57.921875 58.128906 C 58.324219 57.792969 58.414062 57.605469 58.472656 56.980469 C 58.484375 56.878906 58.492188 56.792969 58.496094 56.714844 C 58.472656 56.460938 58.421875 56.242188 58.335938 56.050781 C 58.265625 55.960938 58.171875 55.859375 58.039062 55.726562 C 57.832031 55.519531 57.679688 55.394531 57.523438 55.320312 C 57.320312 55.253906 57.085938 55.222656 56.824219 55.222656 Z M 56.824219 55.222656 "/>
<path style=" stroke:none;fill-rule:nonzero;fill:rgb(93.333333%,44.705882%,46.666667%);fill-opacity:1;" d="M 72.617188 71.035156 C 70.226562 71.058594 68.117188 72.457031 66.148438 74.5625 C 67.328125 78.378906 69.054688 81.453125 70.871094 82.773438 C 71 82.878906 71.125 82.957031 71.261719 83.027344 C 71.402344 83.109375 71.542969 83.183594 71.683594 83.242188 C 73.253906 83.910156 74.640625 83.421875 76.082031 81.707031 C 77.320312 80.238281 78.5625 77.671875 79.566406 74.542969 C 76.980469 72.039062 74.695312 71.015625 72.617188 71.035156 Z M 72.617188 71.035156 "/>
</g>
</svg>
