<?xml version="1.0" encoding="UTF-8" standalone="no"?>
<svg
   xmlns:dc="http://purl.org/dc/elements/1.1/"
   xmlns:cc="http://creativecommons.org/ns#"
   xmlns:rdf="http://www.w3.org/1999/02/22-rdf-syntax-ns#"
   xmlns:svg="http://www.w3.org/2000/svg"
   xmlns="http://www.w3.org/2000/svg"
   viewBox="0 0 3333.3333 3333.3333"
   height="3333.3333"
   width="3333.3333"
   xml:space="preserve"
   id="svg2"
   version="1.1"><metadata
     id="metadata8"><rdf:RDF><cc:Work
         rdf:about=""><dc:format>image/svg+xml</dc:format><dc:type
           rdf:resource="http://purl.org/dc/dcmitype/StillImage" /></cc:Work></rdf:RDF></metadata><defs
     id="defs6"><clipPath
       id="clipPath22"
       clipPathUnits="userSpaceOnUse"><path
         id="path20"
         d="M 0,2500 H 2500 V 0 H 0 Z" /></clipPath></defs><g
     transform="matrix(1.3333333,0,0,-1.3333333,0,3333.3333)"
     id="g10"><g
       transform="translate(112.4043,1250)"
       id="g12"><path
         id="path14"
         style="fill:#3b78c5;fill-opacity:1;fill-rule:nonzero;stroke:none"
         d="M 0,0 V 1137.596 H 2275.191 V -1137.596 H 0" /></g><g
       id="g16"><g
         clip-path="url(#clipPath22)"
         id="g18"><g
           transform="translate(1940.5205,1341.0078)"
           id="g24"><path
             id="path26"
             style="fill:#ffffff;fill-opacity:1;fill-rule:nonzero;stroke:none"
             d="m 0,0 c 58.018,-13.651 102.384,-39.816 142.199,-81.338 21.046,-22.752 52.33,-62.568 54.606,-72.807 0,-3.413 -98.403,-69.961 -158.126,-106.933 -2.276,-1.707 -11.376,7.963 -20.477,22.752 -29.578,42.091 -59.724,60.292 -106.934,63.705 -68.256,4.551 -113.76,-31.284 -113.76,-91.008 0,-18.201 3.413,-28.439 10.238,-43.228 15.358,-31.285 43.798,-50.055 131.962,-88.733 162.676,-69.962 233.207,-116.035 275.867,-182.015 48.348,-73.944 59.154,-189.979 26.734,-277.005 -36.404,-94.99 -125.136,-159.263 -251.978,-180.309 -39.816,-6.826 -130.823,-5.688 -173.483,1.706 -91.008,17.065 -178.035,62.568 -231.501,121.154 -21.046,22.752 -61.43,83.614 -59.156,87.595 l 21.615,13.652 85.32,49.485 64.274,37.54 14.788,-19.907 c 18.771,-29.578 60.862,-69.394 85.321,-83.045 73.943,-38.11 172.914,-32.99 221.831,11.376 21.045,19.339 30.145,39.816 30.145,68.256 0,26.165 -3.981,38.109 -17.063,58.017 -18.201,25.028 -54.605,45.504 -156.988,91.008 -117.742,50.054 -167.795,81.906 -214.437,130.823 -26.734,29.577 -51.192,75.651 -62.568,113.76 -8.532,32.99 -11.376,113.76 -3.412,146.181 24.458,113.759 110.346,193.391 233.207,216.143 39.815,7.963 133.667,4.55 172.914,-5.688 z m -1329.281,-94.989 v -92.714 h 295.775 v -841.821 h 209.887 v 841.821 h 295.774 v 91.008 c 0,51.191 0,92.713 -2.274,93.851 0,1.706 -180.309,2.275 -399.297,2.275 l -398.158,-1.706 v -93.284 z" /></g></g></g></g></svg>